<?xml version="1.0" standalone="no"?>
<!DOCTYPE svg PUBLIC "-//W3C//DTD SVG 20010904//EN"
 "http://www.w3.org/TR/2001/REC-SVG-20010904/DTD/svg10.dtd">
<svg version="1.0" xmlns="http://www.w3.org/2000/svg"
 width="84.000000pt" height="84.000000pt" viewBox="0 0 84.000000 84.000000"
 preserveAspectRatio="xMidYMid meet">
<metadata>
Created by potrace 1.11, written by Peter Selinger 2001-2013
</metadata>
<g transform="translate(0.000000,84.000000) scale(0.100000,-0.100000)"
fill="#000000" stroke="none">
<path d="M568 698 l-3 -63 -65 -5 c-57 -4 -65 -8 -65 -25 0 -17 8 -21 65 -25
l65 -5 3 -62 c3 -59 4 -63 27 -63 24 0 25 3 25 65 l0 65 65 0 c63 0 65 1 65
25 0 24 -2 25 -65 25 l-65 0 0 65 c0 62 -1 65 -25 65 -23 0 -24 -4 -27 -62z"/>
<path d="M130 653 c-8 -3 -23 -12 -32 -21 -16 -14 -18 -40 -18 -279 l0 -263
325 0 325 0 0 140 0 140 -35 0 -35 0 0 -115 0 -115 -257 2 -258 3 0 175 0 175
108 3 107 3 0 79 0 80 -107 -1 c-60 0 -115 -3 -123 -6z"/>
</g>
</svg>
