<svg xmlns="http://www.w3.org/2000/svg" xmlns:xlink="http://www.w3.org/1999/xlink" version="1.1" id="Layer_1" x="0px" y="0px" width="100px" height="100px" viewBox="0 0 100 100" enable-background="new 0 0 100 100" xml:space="preserve">
<path d="M93.098,36.794l-38.057,43.17l27.698-52.985c1.418-2.708,1.695-5.805,0.775-8.729c-0.007-0.038-0.027-0.071-0.041-0.109  l8.952,7.892C95.574,28.813,95.879,33.639,93.098,36.794z M76.124,14.919L65.545,9.391c0.021,0.034,0.055,0.062,0.076,0.095  c1.584,2.619,2.055,5.696,1.328,8.661L52.688,76.21l26.66-51.005C81.3,21.48,79.847,16.865,76.124,14.919z M63.227,17.233  c1.004-4.083-1.502-8.218-5.577-9.22L46.053,5.166c2.124,2.08,3.453,4.969,3.453,8.17v59.792L63.227,17.233z M45.672,13.336v74.212  c0,4.2-3.418,7.618-7.618,7.618H19.74c-4.2,0-7.622-3.418-7.622-7.618V13.336c0-4.202,3.421-7.622,7.622-7.622h18.314  C42.254,5.714,45.672,9.134,45.672,13.336z M39.548,64H18.246v23.548c0,0.823,0.667,1.495,1.495,1.495h18.314  c0.823,0,1.494-0.672,1.494-1.495V64z M34.247,86.496c1.69,0,3.06-1.373,3.06-3.058c0-1.692-1.37-3.06-3.06-3.06  c-1.688,0-3.058,1.367-3.058,3.06C31.188,85.123,32.558,86.496,34.247,86.496z"/>
</svg>