<svg xmlns="http://www.w3.org/2000/svg" xmlns:xlink="http://www.w3.org/1999/xlink" version="1.1" id="Layer_1" x="0px" y="0px" viewBox="0 0 100 100" enable-background="new 0 0 100 100" xml:space="preserve" height="100px" width="100px">
<g>
	<g>
		<path fill-rule="evenodd" clip-rule="evenodd" fill="#000000" d="M7.812,5.03h84.375C93.741,5.03,95,6.289,95,7.843v84.375    c0,1.553-1.259,2.812-2.813,2.812H7.812C6.259,95.03,5,93.771,5,92.218V7.843C5,6.289,6.259,5.03,7.812,5.03z M10.625,89.405    h78.75v-11.25h-78.75V89.405z M10.625,72.53h78.75V10.655h-78.75V72.53z"/>
	</g>
	<g>
		<path fill-rule="evenodd" clip-rule="evenodd" fill="#000000" d="M16.366,64.172c-0.152,1.946,0.776,2.855,2.872,2.733h61.611    c1.547,0,2.907-0.915,2.916-2.663l-14.357-14.45c-1.768-1.831-2.749-2.163-5.024-0.045L52.139,59.805    c-1.176,1.005-2.834,0.769-3.684-0.523l-12.642-20.7c-1.812-2.682-3.752-2.742-5.265-0.057L16.366,64.172z"/>
	</g>
	<g>
		<path fill-rule="evenodd" clip-rule="evenodd" fill="#000000" d="M78.176,27.262c0,3.107-2.518,5.625-5.625,5.625    s-5.625-2.519-5.625-5.625c0-3.106,2.519-5.625,5.625-5.625S78.176,24.156,78.176,27.262z"/>
	</g>
</g>
</svg>