<svg xmlns="http://www.w3.org/2000/svg" xmlns:xlink="http://www.w3.org/1999/xlink" version="1.1" id="Layer_1" x="0px" y="0px" width="50px" height="50px" viewBox="0 0 50 50" enable-background="new 0 0 50 50" xml:space="preserve">
<g>
	<path fill="#000000" d="M29.209,47.391L28.818,49H9.066l0.496-1.609c1.982-0.047,3.292-0.359,3.93-0.643   c1.038-0.402,1.805-1.032,2.301-1.739c0.778-1.109,1.58-3.128,2.407-5.983l8.355-28.975c0.707-2.408,1.061-4.233,1.061-5.462   c0-0.613-0.154-1.138-0.461-1.562c-0.307-0.425-0.773-0.751-1.397-0.978c-0.627-0.223-1.848-0.039-3.664-0.039L22.517,1h18.549   l-0.389,1.01c-1.51-0.023-2.631-0.006-3.363,0.348c-1.063,0.473-1.871,1.07-2.426,1.942c-0.555,0.873-1.268,2.772-2.141,5.77   l-8.319,28.936c-0.756,2.666-1.133,4.356-1.133,5.089c0,0.59,0.146,1.087,0.443,1.499c0.294,0.413,0.766,0.879,1.415,1.104   C25.803,46.921,27.154,47.25,29.209,47.391z"/>
</g>
</svg>