<svg xmlns="http://www.w3.org/2000/svg" xmlns:xlink="http://www.w3.org/1999/xlink" version="1.1" id="Your_Icon" x="0px" y="0px" viewBox="0 0 100 100" enable-background="new 0 0 100 100" xml:space="preserve" height="100px" width="100px">
<g>
	<path d="M55.158,49.112V0h-7.778v48.965c-8.142,1.673-14.284,8.894-14.284,17.523c0,8.631,6.142,15.853,14.284,17.525V100h7.778   V83.868c7.854-1.888,13.715-8.953,13.715-17.379C68.874,58.064,63.012,51,55.158,49.112z M50.985,76.602   c-5.575,0-10.111-4.536-10.111-10.113c0-5.575,4.536-10.111,10.111-10.111s10.111,4.536,10.111,10.111   C61.096,72.066,56.56,76.602,50.985,76.602z"/>
	<path d="M17.916,17.351V0h-7.778v17.512c-5.479,1.768-9.456,6.911-9.456,12.97c0,6.06,3.977,11.203,9.456,12.971V100h7.778V43.613   c5.77-1.586,10.026-6.864,10.026-13.132C27.942,24.215,23.685,18.937,17.916,17.351z M14.312,36.335   c-3.227,0-5.853-2.626-5.853-5.853s2.626-5.852,5.853-5.852s5.852,2.625,5.852,5.852S17.539,36.335,14.312,36.335z"/>
	<path d="M99.319,30.482c0-6.266-4.257-11.544-10.026-13.13V0h-7.778v17.512c-5.479,1.767-9.457,6.911-9.457,12.97   c0,6.06,3.978,11.204,9.457,12.971V100h7.778V43.613C95.062,42.027,99.319,36.749,99.319,30.482z M85.688,36.335   c-3.227,0-5.853-2.626-5.853-5.853s2.626-5.852,5.853-5.852s5.853,2.625,5.853,5.852S88.915,36.335,85.688,36.335z"/>
</g>
</svg>