<svg xmlns="http://www.w3.org/2000/svg" xmlns:xlink="http://www.w3.org/1999/xlink" version="1.1" id="Layer_1" x="0px" y="0px" width="100px" height="100px" viewBox="0 0 100 100" enable-background="new 0 0 100 100" xml:space="preserve">
<path fill="#000000" d="M79.06,14.01c-0.739-2.39-2.359-4.34-4.56-5.5c-1.34-0.71-2.84-1.08-4.35-1.08c-3.46,0-6.61,1.89-8.23,4.95  L32.2,68.8l-2.07,17.69l-0.06,0.06l-0.061,0.9v0.09c0.07,0.99,0.66,1.88,1.561,2.34c0.38,0.19,0.81,0.29,1.229,0.29  c0.47,0,0.92-0.12,1.37-0.36c0.05-0.03,0.18-0.1,0.25-0.18l13.89-12.1c0.271-0.22,0.49-0.52,0.65-0.83l26.05-49.25l3.24-6.08  l0.13-0.27C79.55,18.91,79.79,16.39,79.06,14.01z M42.18,69.59c-1.31-0.69-2.479-1.18-3.59-1.47c-0.34-0.11-0.689-0.2-1.04-0.28  l0.48-0.91l6.58-12.45l3.83-7.22l1.229-2.33l5.12-9.67l0.729-1.38l0.49-0.95l2.975-5.555c4.73,0.51,7.51,2.95,8.79,4.41L64.53,37.88  l-4.95,9.36l-1.97,3.72l-11.36,21.5c-0.25-0.25-0.53-0.49-0.82-0.72C44.56,70.99,43.5,70.28,42.18,69.59z M44.25,75.26l-5.32,4.63  l-3.43-1.8l0.85-7.02c0.41,0.07,0.86,0.17,1.29,0.29c0.03,0,0.04,0.02,0.051,0.02c0.859,0.23,1.829,0.62,2.92,1.2  c1.1,0.59,1.96,1.15,2.63,1.74c0.029,0.01,0.04,0.02,0.04,0.02C43.63,74.64,43.96,74.94,44.25,75.26z M60.19,25.06l0.59-1.12  c4.779,0.55,7.55,3.09,8.739,4.52l-0.539,1.02C67.49,27.9,64.66,25.68,60.19,25.06z M61.797,21.933l4.013-7.493  c1.261-2.41,4.25-3.33,6.641-2.05c2.41,1.26,3.34,4.26,2.06,6.65l-3.963,7.413C69.087,24.883,66.287,22.613,61.797,21.933z"/>
</svg>