<svg xmlns="http://www.w3.org/2000/svg" xmlns:xlink="http://www.w3.org/1999/xlink" version="1.1" id="Layer_1" x="0px" y="0px" width="100px" height="100px" viewBox="0 0 100 100" enable-background="new 0 0 100 100" xml:space="preserve">
<g>
	<circle cx="54.256" cy="15.27" r="1.955"/>
	<circle cx="61.53" cy="12.256" r="1.955"/>
	<circle cx="68.802" cy="9.243" r="1.954"/>
	<circle cx="76.075" cy="6.231" r="1.956"/>
	<path d="M45.066,18.66c0.004,0.021,0.013,0.04,0.018,0.058c0.024,0.104,0.051,0.209,0.094,0.312   c0.016,0.037,0.039,0.07,0.057,0.106c0.003,0.008,0.008,0.015,0.013,0.023c0.064,0.128,0.141,0.246,0.228,0.353   c0.008,0.009,0.015,0.018,0.022,0.027c0.096,0.113,0.201,0.213,0.317,0.302c0.003,0.001,0.005,0.003,0.007,0.006   c0.534,0.395,1.251,0.514,1.91,0.242c0.042-0.017,0.071-0.047,0.11-0.066c0.105-0.052,0.205-0.111,0.3-0.181   c0.056-0.042,0.11-0.084,0.161-0.13c0.109-0.1,0.21-0.209,0.295-0.335c0.026-0.038,0.044-0.082,0.068-0.122   c0.043-0.075,0.089-0.148,0.123-0.229c0.016-0.037,0.021-0.076,0.034-0.113c0.017-0.05,0.032-0.099,0.045-0.15   c0.042-0.164,0.07-0.329,0.069-0.491c0-0.04-0.008-0.077-0.011-0.114c-0.005-0.087-0.01-0.173-0.026-0.258   c-0.123-0.619-0.542-1.168-1.17-1.429c-0.998-0.413-2.142,0.062-2.553,1.058c-0.097,0.234-0.141,0.476-0.145,0.714   c0,0.011-0.003,0.021-0.003,0.032c0,0.079,0.012,0.158,0.021,0.236C45.057,18.558,45.056,18.611,45.066,18.66z"/>
	<circle cx="54.255" cy="21.286" r="1.956"/>
	<circle cx="61.528" cy="24.299" r="1.956"/>
	<circle cx="68.801" cy="27.311" r="1.955"/>
	<circle cx="76.074" cy="30.323" r="1.956"/>
	<circle cx="62.718" cy="18.198" r="1.956"/>
	<circle cx="70.589" cy="18.198" r="1.955"/>
	<circle cx="78.461" cy="18.199" r="1.957"/>
	<path d="M50.199,24.9c-1.185-0.918-3.051-1.576-5.188-2.026c-0.116-0.104-0.225-0.215-0.351-0.308   c-1.029-0.799-2.694-1.237-4.29-1.477v-2.449c0-1.762-1.434-3.195-3.196-3.195h-1.487c-1.762,0-3.195,1.433-3.195,3.195v2.44   c-1.794,0.265-3.677,0.786-4.696,1.789c-2.806,0.59-5.155,1.534-6.159,2.941c-0.8,0.846-1.383,1.846-1.734,2.927   c-0.233,0.302-0.377,0.676-0.377,1.087v0.233c-0.001,0.034-0.01,0.065-0.01,0.099c0,0.056,0.009,0.111,0.01,0.166v0.616   c-0.001,0.071-0.01,0.14-0.01,0.21c0,0.034,0.008,0.065,0.01,0.098v49.667c-0.006,0.063-0.01,0.126-0.01,0.19v1.951   c0,1.241,0.301,2.451,0.848,3.529c-0.507,0.314-0.848,0.873-0.848,1.514c0,2.473,1.191,4.818,3.146,6.248   c2.694,2.09,8.915,2.835,13.838,2.835c5.623,0,12.758-0.985,14.726-3.746c1.369-1.449,2.12-3.337,2.12-5.337   c0-0.639-0.339-1.196-0.844-1.513c0.552-1.08,0.844-2.283,0.844-3.53V31.149v-0.992v-0.332c0-0.428-0.157-0.815-0.407-1.123   C52.437,27.189,51.489,25.843,50.199,24.9z M30.162,25.587c0.067-0.069,0.129-0.142,0.185-0.22   c0.322-0.234,1.367-0.577,2.975-0.792c0.585,0.649,1.424,1.066,2.365,1.066h1.487c0.937,0,1.772-0.412,2.357-1.056   c1.557,0.214,2.618,0.558,2.977,0.835c0.335,0.246,0.554,0.6,0.625,0.998c-0.055,0.314-0.204,0.603-0.433,0.833   c-0.067,0.068-0.129,0.142-0.186,0.221c-0.496,0.358-2.682,0.985-6.045,0.985c-3.258,0-5.551-0.603-6.117-1.04   c-0.335-0.246-0.554-0.6-0.624-0.998C29.784,26.107,29.933,25.818,30.162,25.587z M23.222,30.157   c0.027-0.113,0.063-0.222,0.1-0.332c0.201-0.605,0.522-1.165,0.982-1.631c0.1-0.101,0.182-0.204,0.255-0.326   c0.175-0.24,0.719-0.553,1.604-0.87c0.028,0.166,0.07,0.324,0.14,0.47c0.24,0.902,0.728,1.716,1.387,2.356   c0.121,0.116,0.247,0.228,0.379,0.332c0.046,0.036,0.085,0.082,0.133,0.116c2.104,1.634,6.86,1.761,8.268,1.761   c1.556,0,6.318-0.154,8.384-1.877c0.125-0.104,0.238-0.215,0.342-0.332c0.054-0.061,0.115-0.117,0.163-0.179   c0.583-0.628,0.992-1.377,1.205-2.189c0.058-0.125,0.1-0.258,0.128-0.397c0.588,0.224,1.051,0.459,1.356,0.695   c0.721,0.529,1.214,1.256,1.484,2.071c0.037,0.112,0.094,0.216,0.122,0.332h0.117c0,1.114-0.431,2.161-1.213,2.952   c-0.101,0.103-0.182,0.205-0.256,0.328c-0.002,0.005-0.34,0.448-1.945,0.979c-0.908,0.3-1.406,1.257-1.156,2.168   c0.008,0.03,0.01,0.06,0.02,0.09c0.249,0.75,0.947,1.227,1.697,1.227c0.186,0,0.375-0.029,0.561-0.091   c0.915-0.303,1.674-0.64,2.292-1.02v46.266c0,1.113-0.432,2.161-1.214,2.953c-0.1,0.102-0.181,0.203-0.254,0.326   c-0.548,0.753-4.696,2.229-11.802,2.229c-5.88,0-10.311-1.049-11.688-2.116c-1.095-0.8-1.722-2.035-1.722-3.392v-1.762   c0.006-0.062,0.01-0.126,0.01-0.189V36.708c2.884,1.859,8.724,2.533,13.399,2.533c1.699,0,3.363-0.083,4.948-0.246   c0.982-0.102,1.696-0.979,1.595-1.961c-0.001-0.015-0.007-0.029-0.009-0.044c-0.124-0.959-0.996-1.642-1.952-1.552   c-1.353,0.139-2.776,0.208-4.229,0.219c-0.119,0-0.234,0.008-0.353,0.008c-5.882,0-10.312-1.048-11.688-2.116   c-0.912-0.667-1.475-1.642-1.645-2.731c-0.035-0.219-0.077-0.434-0.077-0.66H23.222z M48.556,91.052   c-0.1,0.102-0.181,0.203-0.254,0.326c-0.548,0.753-4.696,2.229-11.802,2.229c-5.882,0-10.312-1.049-11.688-2.116   c-0.6-0.438-1.042-1.014-1.335-1.66c2.994,1.688,8.542,2.309,13.022,2.309c4.438,0,9.809-0.619,12.847-2.234   C49.146,90.32,48.891,90.713,48.556,91.052z"/>
</g>
</svg>