<svg xmlns="http://www.w3.org/2000/svg" xmlns:xlink="http://www.w3.org/1999/xlink" version="1.1" x="0px" y="0px" width="100px" height="100px" viewBox="0 0 100 100" enable-background="new 0 0 100 100" xml:space="preserve">
<g id="Captions">
</g>
<g id="Your_Icon">
	<path d="M99.998,4.64c-0.08-2.531-2.207-4.584-4.742-4.584H84.16c0,0-26.748,0.595-35.671,0.589   c-8.167-0.006-32.65-0.589-32.65-0.589H4.745c-2.535,0-4.663,2.053-4.742,4.584C-0.078,7.179,1.931,9.25,4.481,9.25h3.472   c1.093,6.796,9.983,61.954,13.791,81.409c0.601,3.066,2.423,6.641,5.612,6.987c1.71,0.444,9.72,2.354,21.208,2.354   c11.732,0,21.838-1.983,23.58-2.344c3.236-0.28,5.098-3.891,5.715-6.985c3.898-19.528,13.068-74.692,14.184-81.42h3.477   C98.068,9.25,100.078,7.179,99.998,4.64z M76.697,9.433c-0.777,1.032-1.553,2.063-2.326,3.092c-0.854-0.988-1.707-1.99-2.559-3   C73.527,9.493,75.174,9.461,76.697,9.433z M62.725,10.208c2.293,2.965,4.607,5.827,6.939,8.593   c-0.436,0.583-0.871,1.165-1.307,1.748c-2.314,3.095-4.623,6.184-6.945,9.237c-2.449-2.942-4.785-5.901-7.004-8.819   C57.146,17.557,59.916,13.975,62.725,10.208z M45.081,49.784c-2.476,2.732-5.009,5.36-7.615,7.856   c-2.643-2.896-5.254-5.874-7.833-8.932c2.627-2.511,5.154-5.108,7.584-7.753C39.751,43.938,42.374,46.889,45.081,49.784z    M42.506,34.96c0.13-0.153,0.258-0.306,0.388-0.46c2.343-2.588,4.699-5.293,7.077-8.124c2.398,2.862,4.781,5.597,7.15,8.211   c0.104,0.124,0.207,0.247,0.311,0.37c-2.453,3.145-4.936,6.227-7.462,9.219C47.442,41.185,44.959,38.104,42.506,34.96z    M49.969,54.84c2.601,2.604,5.271,5.146,8.027,7.598c-2.645,2.772-5.32,5.468-8.027,8.087c-2.709-2.619-5.385-5.314-8.03-8.086   C44.695,59.986,47.366,57.443,49.969,54.84z M54.859,49.784c2.707-2.895,5.33-5.847,7.865-8.829   c2.428,2.644,4.955,5.241,7.58,7.751c-2.578,3.058-5.189,6.035-7.832,8.932C59.867,55.142,57.334,52.515,54.859,49.784z    M47.824,9.845c1.532,0.002,3.561-0.012,5.881-0.038c-0.492,0.689-0.979,1.368-1.463,2.037c-0.738,1.033-1.5,2.087-2.271,3.148   c-0.773-1.061-1.536-2.115-2.276-3.148c-0.476-0.658-0.956-1.327-1.44-2.005C46.825,9.843,47.353,9.845,47.824,9.845z    M37.217,10.208c2.81,3.767,5.579,7.349,8.315,10.759c-2.219,2.918-4.556,5.878-7.005,8.821c-2.323-3.054-4.633-6.144-6.946-9.24   c-0.435-0.582-0.87-1.163-1.305-1.744C32.609,16.037,34.924,13.175,37.217,10.208z M28.105,9.549   c-0.846,1.002-1.692,1.995-2.539,2.976c-0.769-1.024-1.541-2.049-2.313-3.075C24.775,9.481,26.414,9.515,28.105,9.549z    M14.576,11.181c1.739,2.493,3.55,5.049,5.42,7.639c-1.171,1.291-2.343,2.562-3.517,3.816   C15.679,17.844,15.02,13.868,14.576,11.181z M20.275,48.477l-0.482-2.642l1.102,1.947L20.275,48.477z M18.078,32.176   c2.22-2.244,4.424-4.563,6.608-6.973c2.649,3.534,5.415,7.104,8.298,10.656c-2.559,2.674-5.111,5.213-7.665,7.622   C23.022,40.634,18.219,33.018,18.078,32.176z M24.31,68.483c-0.736-4.172-1.503-8.578-2.271-13.031   c0.724-0.593,1.442-1.192,2.152-1.803c2.664,3.026,5.362,5.927,8.069,8.706C29.697,64.539,27.051,66.587,24.31,68.483z    M28.823,88.654c0,0-0.334,0.452-0.642,0.771c-0.023-0.089-0.044-0.175-0.061-0.26c-0.433-2.164-0.934-4.798-1.485-7.772   c1.744,1.641,3.503,3.258,5.275,4.854C30.864,87.068,29.833,87.872,28.823,88.654z M34.285,92.014   c0.729-0.572,1.456-1.149,2.179-1.732c0.909,0.791,1.821,1.577,2.736,2.359C37.344,92.456,35.692,92.236,34.285,92.014z    M37.281,81.964c-2.969-2.872-5.896-5.809-8.779-8.807c2.827-1.999,5.575-4.107,8.255-6.301c2.877,2.808,5.751,5.485,8.596,8.034   c-2.005,1.853-4.029,3.665-6.067,5.436C38.613,80.879,37.944,81.425,37.281,81.964z M50.57,93.085   c-0.393,0.007-0.789,0.014-1.185,0.017c-2.634-2.307-5.237-4.657-7.806-7.055c0.86-0.731,1.718-1.468,2.573-2.212   c1.91-1.57,3.851-3.199,5.817-4.889c1.982,1.703,3.939,3.346,5.865,4.93c0.838,0.73,1.68,1.451,2.523,2.168   C55.793,88.438,53.197,90.782,50.57,93.085z M61.039,92.383c0.814-0.696,1.625-1.397,2.436-2.102   c0.643,0.519,1.289,1.032,1.936,1.543C64.121,92.012,62.65,92.205,61.039,92.383z M62.654,81.963   c-0.648-0.525-1.301-1.058-1.955-1.597c-2.053-1.786-4.092-3.608-6.111-5.476c2.844-2.549,5.717-5.226,8.594-8.032   c2.678,2.191,5.426,4.301,8.252,6.299C68.551,76.155,65.625,79.092,62.654,81.963z M71.494,89.131   c-0.211-0.247-0.381-0.477-0.381-0.477c-1.012-0.782-2.041-1.585-3.086-2.405c1.648-1.485,3.287-2.989,4.912-4.514   C72.404,84.552,71.916,87.057,71.494,89.131z M75.416,68.335c-2.664-1.854-5.24-3.853-7.736-5.979   c2.707-2.78,5.406-5.681,8.07-8.707c0.658,0.566,1.324,1.124,1.994,1.678C76.957,59.77,76.172,64.165,75.416,68.335z    M78.932,48.477l-0.619-0.695l1.1-1.947L78.932,48.477z M74.617,43.481c-2.553-2.409-5.104-4.946-7.662-7.62   c2.883-3.553,5.65-7.123,8.301-10.659c2.164,2.39,4.35,4.69,6.551,6.917C81.65,33.021,76.881,40.676,74.617,43.481z M83.445,22.624   c-1.168-1.25-2.336-2.515-3.502-3.801c1.891-2.616,3.719-5.198,5.475-7.714C84.959,13.794,84.275,17.795,83.445,22.624z"/>
</g>
</svg>