<svg xmlns="http://www.w3.org/2000/svg" xmlns:xlink="http://www.w3.org/1999/xlink" version="1.1" id="Layer_1" width="100.5" height="100.5" viewBox="0 0 100.5 88.885" overflow="visible" enable-background="new 0 0 100.5 88.885" xml:space="preserve">
<g id="XMLID_4_">
	<g>
		<path d="M86.255,15.049c0.026-0.044,0.108-0.103,0.113-0.17c0.003-0.064,0.04-0.026,0.056-0.058    c0.031-0.056,0.021-0.104,0.057-0.168c0.019-0.032,0.095-0.078,0.112-0.114c0.034-0.06,0.028-0.12,0.058-0.168    c0.004-0.008,0.049,0.007,0.058,0c0.017-0.013-0.013-0.092,0-0.111c0.019-0.035,0.092-0.079,0.112-0.113    c0.033-0.061,0.025-0.122,0.056-0.171c0.021-0.033,0.092-0.075,0.114-0.111c0.047-0.087,0.066-0.203,0.111-0.284    c0.019-0.033,0.094-0.075,0.112-0.113c0.034-0.061,0.028-0.12,0.058-0.169c0.004-0.008,0.049,0.007,0.057,0    c0.018-0.013-0.012-0.092,0-0.113c0.02-0.031,0.092-0.077,0.113-0.113c0.033-0.06,0.024-0.12,0.056-0.169    c0.021-0.035,0.092-0.075,0.112-0.111c0.049-0.086,0.068-0.203,0.113-0.285c0.019-0.031,0.094-0.074,0.112-0.11    c0.033-0.062,0.026-0.121,0.056-0.171c0.006-0.007,0.051,0.007,0.057,0c0.019-0.014-0.01-0.093,0-0.113    c0.02-0.032,0.093-0.075,0.113-0.113c0.033-0.06,0.026-0.12,0.058-0.169c0.021-0.034,0.091-0.074,0.112-0.113    c0.049-0.083,0.066-0.202,0.112-0.282c0.019-0.031,0.093-0.075,0.113-0.113c0.032-0.062,0.026-0.12,0.056-0.168    c0.209-0.354,0.415-0.716,0.621-1.072c0.025-0.046,0.028-0.075,0.057-0.113c0.026-0.036,0.09-0.072,0.113-0.115    c0.032-0.056,0.029-0.121,0.057-0.167c0.084-0.146,0.149-0.228,0.226-0.395c0,0,0.047-0.042,0.058-0.057    c0.051-0.078,0.115-0.207-0.058-0.169c-26.242,0-52.481,0-78.722,0c-0.088,0.016-0.04,0.125,0,0.169    c0.011,0.049,0.031,0.078,0.056,0.113c0.026,0.036,0.089,0.072,0.113,0.113c0.045,0.072,0.07,0.209,0.113,0.282    c0.003,0.009,0.048-0.007,0.056,0c0.018,0.015-0.01,0.093,0,0.111c0.018,0.035,0.093,0.079,0.114,0.115    c0.032,0.057,0.021,0.104,0.056,0.168c0.018,0.031,0.093,0.079,0.113,0.113c0.006,0.01,0,0.044,0,0.058    c0.003,0.064,0.04,0.025,0.057,0.056c0.031,0.056,0.021,0.104,0.057,0.168c0.017,0.033,0.092,0.077,0.112,0.113    c0.033,0.061,0.028,0.122,0.056,0.171c0.005,0.007,0.05-0.007,0.057,0c0.017,0.011-0.011,0.092,0,0.112    c0.018,0.033,0.092,0.076,0.113,0.113c0.033,0.058,0.021,0.105,0.057,0.17c0.016,0.031,0.092,0.075,0.112,0.111    c0.044,0.076,0.071,0.205,0.113,0.282c0.018,0.032,0.093,0.075,0.113,0.113c0.033,0.062,0.026,0.121,0.056,0.169    c0.005,0.01,0.05-0.005,0.057,0c0.017,0.015-0.012,0.092,0,0.113c0.017,0.031,0.09,0.077,0.112,0.113    c0.033,0.058,0.023,0.104,0.058,0.171c0.017,0.031,0.093,0.075,0.113,0.113c0.006,0.009-0.001,0.043,0,0.054    c0.003,0.064,0.039,0.028,0.057,0.056c0.032,0.058,0.021,0.108,0.056,0.172c0.018,0.031,0.094,0.075,0.113,0.113    c0.032,0.059,0.029,0.118,0.057,0.167c0.004,0.01,0.047-0.006,0.057,0c0.017,0.015-0.011,0.094,0,0.114    c0.018,0.033,0.092,0.077,0.112,0.113c0.034,0.061,0.026,0.121,0.056,0.168c0.026,0.043,0.11,0.104,0.115,0.171    c0.003,0.071,0.134,0.198,0.167,0.227c0.019,0.013-0.01,0.092,0,0.113c0.02,0.031,0.093,0.075,0.114,0.111    c0.05,0.086,0.066,0.2,0.113,0.284c0.017,0.031,0.09,0.077,0.112,0.111c0.039,0.065,0.056,0.123,0.113,0.168    c0.018,0.015-0.011,0.094,0,0.114c0.019,0.032,0.093,0.077,0.114,0.113c0.032,0.057,0.021,0.104,0.056,0.168    c0.016,0.033,0.093,0.079,0.114,0.115c0.05,0.086,0.066,0.196,0.112,0.282c0.018,0.031,0.091,0.077,0.114,0.111    c0.04,0.065,0.055,0.123,0.112,0.17c0.018,0.014-0.011,0.092,0,0.114c0.018,0.031,0.092,0.075,0.112,0.111    c0.034,0.057,0.023,0.104,0.057,0.17c0.017,0.03,0.094,0.078,0.113,0.112c0.051,0.087,0.067,0.198,0.113,0.282    c0.018,0.033,0.091,0.081,0.113,0.115c0.04,0.064,0.056,0.121,0.113,0.168c0.016,0.015-0.012,0.092,0,0.113    c0.017,0.032,0.091,0.078,0.112,0.112c0.034,0.057,0.022,0.104,0.057,0.169c0.017,0.032,0.092,0.078,0.111,0.114    c0.049,0.084,0.068,0.204,0.114,0.282c0.021,0.033,0.089,0.075,0.113,0.111c0.039,0.065,0.056,0.125,0.113,0.169    c0.018,0.016-0.01,0.095,0,0.113c0.018,0.033,0.093,0.077,0.114,0.114c0.078,0.135,0.12,0.242,0.169,0.282    c0.019,0.015-0.015,0.092,0,0.111c0.028,0.043,0.081,0.061,0.112,0.114c0.033,0.057,0.023,0.104,0.057,0.168    c0.015,0.033,0.092,0.079,0.113,0.113c0.097,0.168,0.166,0.293,0.225,0.396c0.038,0.067,0.057,0.125,0.113,0.17    c0.019,0.015-0.013,0.092,0,0.113c0.03,0.043,0.082,0.058,0.114,0.114c0.032,0.056,0.021,0.103,0.056,0.168    c0.017,0.031,0.093,0.077,0.114,0.113c0.098,0.167,0.166,0.292,0.225,0.394c0.038,0.065,0.057,0.125,0.113,0.171    c0.019,0.014-0.014,0.092,0,0.113c0.029,0.041,0.082,0.059,0.113,0.111c0.033,0.06,0.021,0.107,0.056,0.171    c0.018,0.031,0.092,0.077,0.113,0.113c0.05,0.087,0.066,0.199,0.113,0.282c0.016,0.031,0.09,0.077,0.113,0.113    c0.04,0.064,0.056,0.121,0.112,0.168c0.02,0.016-0.015,0.094,0,0.114c0.031,0.041,0.082,0.059,0.113,0.111    c0.034,0.057,0.021,0.107,0.057,0.17c0.017,0.033,0.092,0.079,0.112,0.113c0.097,0.167,0.183,0.333,0.282,0.507    c0.096,0.17,0.166,0.292,0.227,0.396c0.031,0.054,0.02,0.107,0.056,0.169c0.012,0.022,0.095,0.032,0.113,0.057    c0.032,0.041,0.034,0.129,0.056,0.167c0.134,0.224,0.3,0.515,0.395,0.679c0.038,0.065,0.056,0.123,0.114,0.168    c0.019,0.016-0.016,0.092,0,0.114c0.029,0.039,0.08,0.06,0.113,0.113c0.143,0.229,0.3,0.513,0.395,0.677    c0.038,0.065,0.056,0.123,0.112,0.168c0.02,0.017-0.013,0.092,0,0.113c0.03,0.042,0.082,0.061,0.115,0.114    c0.143,0.229,0.3,0.513,0.395,0.677c0.038,0.066,0.056,0.123,0.112,0.169c0.019,0.015-0.014,0.093,0,0.111    c0.031,0.044,0.082,0.059,0.113,0.114c0.063,0.11,0.059,0.19,0.114,0.282c0.013,0.023,0.095,0.032,0.112,0.057    c0.033,0.043,0.032,0.13,0.056,0.169c0.063,0.102,0.117,0.19,0.169,0.282c0.636,1.096,1.243,2.141,1.863,3.217    c0.115,0.199,0.243,0.488,0.338,0.62c0.026,0.036,0.09,0.072,0.114,0.113c0.033,0.056,0.028,0.123,0.056,0.169    c0.027,0.045,0.109,0.119,0.113,0.17c0.005,0.082,0.085,0.174,0.114,0.223c0.131,0.239,0.287,0.495,0.395,0.679    c0.085,0.147,0.143,0.248,0.225,0.396c0.129,0.236,0.289,0.495,0.396,0.677c0.084,0.147,0.143,0.248,0.225,0.396    c0.074,0.132,0.175,0.31,0.227,0.395c0.029,0.047,0.09,0.074,0.112,0.111c0.054,0.093,0.059,0.245,0.113,0.339    c0.013,0.021,0.095,0.031,0.113,0.056c0.033,0.044,0.031,0.129,0.057,0.168c0.059,0.096,0.164,0.192,0.169,0.283    c0.003,0.083,0.083,0.176,0.113,0.229c0.017,0.031,0.092,0.074,0.112,0.111c0.034,0.062,0.029,0.12,0.057,0.171    c0.209,0.363,0.416,0.718,0.621,1.07c0.415,0.722,0.825,1.431,1.241,2.146c2.495,4.283,4.928,8.533,7.393,12.81    c0.095,0.166,0.182,0.338,0.282,0.508c0.004,0.008,0.048-0.006,0.056,0c0.018,0.014-0.01,0.094,0,0.113    c0.018,0.033,0.092,0.076,0.113,0.111c0.034,0.057,0.022,0.104,0.057,0.17c0.018,0.031,0.092,0.078,0.113,0.113    c0.006,0.01,0,0.045,0,0.057c0.003,0.064,0.04,0.025,0.057,0.057c0.032,0.055,0.021,0.105,0.057,0.168    c0.018,0.033,0.092,0.076,0.112,0.113c0.033,0.062,0.029,0.121,0.056,0.17c0.006,0.008,0.051-0.006,0.058,0    c0.016,0.014-0.012,0.092,0,0.113c0.018,0.031,0.092,0.076,0.113,0.111c0.034,0.061,0.026,0.121,0.057,0.17    c0.02,0.033,0.09,0.074,0.112,0.112c0.044,0.076,0.071,0.205,0.113,0.281c0.018,0.033,0.094,0.076,0.113,0.112    c0.032,0.062,0.029,0.121,0.056,0.171c0.004,0.008,0.05-0.009,0.057,0c0.017,0.014-0.012,0.092,0,0.11    c0.018,0.033,0.092,0.078,0.111,0.113c0.035,0.061,0.026,0.121,0.058,0.17c0.026,0.043,0.108,0.104,0.112,0.168    c0.004,0.084,0.085,0.176,0.112,0.227c0.019,0.033,0.093,0.076,0.114,0.113c0.034,0.062,0.029,0.121,0.057,0.17    c0.004,0.008,0.048-0.008,0.057,0c0.017,0.015-0.011,0.092,0,0.113c0.018,0.031,0.092,0.076,0.112,0.111    c0.035,0.061,0.027,0.121,0.056,0.17c0.022,0.033,0.092,0.074,0.115,0.111c0.045,0.082,0.064,0.199,0.113,0.283    c0.017,0.032,0.092,0.073,0.111,0.112c0.035,0.062,0.028,0.119,0.058,0.17c0.005,0.007,0.048-0.006,0.056,0    c0.018,0.015-0.01,0.095,0,0.111c0.018,0.03,0.092,0.077,0.113,0.114c0.034,0.06,0.027,0.119,0.056,0.168    c0.021,0.033,0.092,0.076,0.113,0.113c0.049,0.088,0.057,0.185,0.114,0.281c0.017,0.033,0.091,0.076,0.112,0.111    c0.033,0.062,0.028,0.123,0.056,0.172c0.024,0.041,0.029,0.076,0.057,0.111c0.026,0.037,0.088,0.074,0.113,0.112    c0.034,0.056,0.028,0.125,0.057,0.171c0.021,0.034,0.089,0.073,0.112,0.112c0.046,0.08,0.065,0.195,0.113,0.281    c0.019,0.032,0.092,0.075,0.113,0.112c0.032,0.06,0.028,0.121,0.056,0.168c0.025,0.045,0.029,0.076,0.058,0.115    c0.026,0.035,0.088,0.07,0.111,0.111c0.033,0.057,0.031,0.123,0.058,0.17c0.083,0.145,0.143,0.246,0.225,0.395    c0.018,0.033,0.093,0.074,0.113,0.113c0.032,0.061,0.029,0.119,0.057,0.17c0.024,0.043,0.028,0.074,0.057,0.111    c0.026,0.037,0.089,0.072,0.112,0.113c0.033,0.055,0.03,0.123,0.057,0.17c0.089,0.152,0.134,0.234,0.226,0.395    c0.005,0.01,0.049-0.006,0.056,0c0.019,0.016-0.01,0.094,0,0.111c0.02,0.035,0.093,0.078,0.115,0.115    c0.041,0.076,0.069,0.205,0.113,0.281c0.017,0.03,0.093,0.075,0.112,0.112c0.034,0.062,0.029,0.121,0.057,0.168    c0.003,0.011,0.048-0.006,0.056,0c0.018,0.017-0.011,0.095,0,0.115c0.019,0.03,0.093,0.073,0.114,0.11    c0.034,0.062,0.026,0.121,0.056,0.17c0.026,0.043,0.11,0.103,0.113,0.168c0.003,0.066,0.04,0.027,0.056,0.058    c0.033,0.06,0.023,0.104,0.058,0.17c0.017,0.033,0.093,0.078,0.113,0.113c0.032,0.062,0.027,0.118,0.055,0.168    c0.005,0.008,0.049-0.004,0.057,0c0.017,0.016-0.011,0.092,0,0.112c0.017,0.031,0.091,0.078,0.113,0.113    c0.035,0.062,0.025,0.121,0.057,0.17c0.021,0.033,0.092,0.074,0.113,0.113c0.051,0.09,0.063,0.191,0.112,0.281    c0.02,0.031,0.093,0.076,0.115,0.111c0.032,0.062,0.027,0.123,0.056,0.172c0.005,0.008,0.049-0.006,0.057,0    c0.017,0.014-0.012,0.092,0,0.11c0.017,0.033,0.091,0.078,0.112,0.113c0.034,0.06,0.026,0.121,0.057,0.168    c0.021,0.037,0.09,0.076,0.111,0.115c0.048,0.082,0.065,0.194,0.114,0.28c0.018,0.031,0.093,0.076,0.113,0.113    c0.034,0.061,0.029,0.121,0.056,0.168c0.005,0.01,0.049-0.006,0.057,0c0.018,0.016-0.01,0.094,0,0.115    c0.018,0.031,0.093,0.074,0.114,0.111c0.006,0.01-0.001,0.043,0,0.057c0.003,0.068,0.135,0.197,0.168,0.225    c0.018,0.017-0.012,0.094,0,0.113c0.019,0.031,0.093,0.076,0.114,0.115c0.032,0.055,0.022,0.102,0.057,0.168    c0.016,0.031,0.092,0.078,0.113,0.113c0.048,0.084,0.066,0.203,0.111,0.281c0.021,0.032,0.092,0.075,0.113,0.11    c0.04,0.065,0.056,0.125,0.114,0.172c0.018,0.015-0.012,0.093,0,0.111c0.018,0.032,0.092,0.078,0.113,0.112    c0.033,0.058,0.021,0.105,0.056,0.168c0.018,0.033,0.093,0.078,0.114,0.115c0.042,0.074,0.07,0.205,0.112,0.281    c0.019,0.031,0.093,0.076,0.113,0.113c0.034,0.061,0.028,0.121,0.056,0.168c0.005,0.01,0.049-0.006,0.057,0    c0.017,0.016-0.011,0.094,0,0.115c0.017,0.031,0.091,0.074,0.112,0.11c0.035,0.058,0.023,0.105,0.058,0.171    c0.018,0.03,0.092,0.077,0.113,0.11c0.005,0.013,0,0.045,0,0.058c0.003,0.065,0.04,0.026,0.057,0.057    c0.03,0.057,0.022,0.104,0.056,0.17c0.018,0.033,0.093,0.074,0.113,0.113c0.032,0.061,0.027,0.119,0.056,0.168    c0.005,0.008,0.049-0.004,0.056,0c0.018,0.016-0.011,0.092,0,0.112c0.019,0.031,0.092,0.076,0.113,0.113    c0.034,0.056,0.021,0.104,0.057,0.17c0.017,0.031,0.092,0.078,0.112,0.113c0.047,0.079,0.065,0.194,0.113,0.28    c0.005,0.008,0.049-0.006,0.057,0c0.017,0.017-0.012,0.095,0,0.111c0.018,0.035,0.091,0.078,0.112,0.115    c0.055,0.094,0.07,0.201,0.113,0.281c0.018,0.031,0.092,0.078,0.114,0.113c0.04,0.063,0.054,0.123,0.112,0.168    c0.02,0.016-0.014,0.094,0,0.114c0.029,0.041,0.081,0.06,0.113,0.111c0.034,0.057,0.022,0.104,0.057,0.17    c0.017,0.03,0.092,0.078,0.113,0.11c0.046,0.082,0.064,0.195,0.112,0.283c0.018,0.031,0.092,0.08,0.113,0.113    c0.04,0.064,0.056,0.121,0.113,0.168c0.016,0.016-0.011,0.092,0,0.113c0.018,0.031,0.091,0.076,0.113,0.113    c0.033,0.055,0.022,0.104,0.056,0.17c0.017,0.031,0.092,0.078,0.114,0.113c0.05,0.086,0.066,0.196,0.113,0.28    c0.017,0.031,0.09,0.078,0.112,0.111c0.04,0.065,0.055,0.125,0.113,0.172c0.017,0.014-0.011,0.092,0,0.11    c0.019,0.033,0.093,0.078,0.114,0.113c0.031,0.057,0.02,0.105,0.056,0.168c0.018,0.031,0.092,0.078,0.112,0.113    c0.051,0.086,0.067,0.203,0.115,0.283c0.019,0.033,0.088,0.076,0.113,0.113c0.04,0.062,0.056,0.123,0.112,0.168    c0.018,0.016-0.011,0.094,0,0.114c0.018,0.031,0.092,0.074,0.113,0.111c0.034,0.058,0.022,0.104,0.056,0.17    c0.018,0.031,0.094,0.078,0.114,0.11c0.049,0.084,0.066,0.205,0.113,0.283c0.02,0.033,0.09,0.076,0.114,0.113    c0.039,0.064,0.056,0.121,0.113,0.168c0.017,0.016-0.012,0.092,0,0.113c0.018,0.031,0.091,0.076,0.112,0.113    c0.034,0.055,0.021,0.104,0.056,0.17c0.018,0.031,0.093,0.074,0.114,0.113c0.006,0.01-0.001,0.041,0,0.055    c0.002,0.063,0.04,0.027,0.057,0.057c0.031,0.057,0.021,0.107,0.056,0.17c0.018,0.031,0.093,0.076,0.113,0.111    c0.034,0.062,0.028,0.121,0.056,0.172c0.005,0.008,0.049-0.008,0.057,0c0.017,0.014-0.011,0.092,0,0.111    c0.018,0.033,0.092,0.078,0.113,0.113c0.031,0.057,0.021,0.104,0.056,0.168c0.018,0.03,0.092,0.077,0.113,0.112    c0.005,0.013-0.002,0.045,0,0.06c0.003,0.062,0.04,0.022,0.056,0.057c0.032,0.055,0.021,0.104,0.057,0.168    c0.018,0.031,0.094,0.076,0.112,0.113c0.034,0.061,0.029,0.119,0.057,0.168c0.004,0.01,0.049-0.006,0.056,0    c0.018,0.016-0.01,0.094,0,0.113c0.019,0.032,0.093,0.075,0.113,0.112c0.034,0.062,0.026,0.119,0.057,0.17    c0.021,0.033,0.089,0.074,0.114,0.111c0.043,0.073,0.068,0.209,0.113,0.28c0.019,0.035,0.087,0.08,0.113,0.115    c0.034,0.047-0.004,0.148,0.112,0.113c0.03-0.148,0.094-0.221,0.169-0.283c0.018-0.014-0.011-0.092,0-0.113    c0.019-0.03,0.092-0.078,0.113-0.112c0.05-0.086,0.068-0.197,0.113-0.281c0.018-0.033,0.09-0.078,0.113-0.112    c0.04-0.064,0.056-0.123,0.112-0.171c0.019-0.014-0.014-0.092,0-0.11c0.029-0.043,0.082-0.06,0.113-0.113    c0.033-0.057,0.021-0.105,0.057-0.168c0.017-0.033,0.093-0.078,0.113-0.115c0.051-0.086,0.066-0.197,0.112-0.281    c0.019-0.031,0.093-0.078,0.112-0.113c0.04-0.063,0.056-0.123,0.113-0.168c0.018-0.016-0.012-0.094,0-0.114    c0.019-0.031,0.093-0.074,0.113-0.111c0.031-0.057,0.021-0.104,0.057-0.17c0.016-0.03,0.093-0.078,0.111-0.11    c0.051-0.088,0.066-0.199,0.112-0.283c0.019-0.031,0.091-0.08,0.113-0.113c0.04-0.064,0.056-0.121,0.112-0.168    c0.019-0.016-0.011-0.092,0-0.113c0.02-0.031,0.092-0.076,0.113-0.113c0.032-0.055,0.021-0.104,0.057-0.17    c0.017-0.031,0.093-0.078,0.111-0.113c0.053-0.086,0.067-0.196,0.114-0.28c0.017-0.031,0.09-0.078,0.11-0.11    c0.041-0.066,0.059-0.125,0.113-0.173c0.02-0.014-0.012-0.092,0-0.11c0.02-0.033,0.092-0.078,0.113-0.113    c0.066-0.115,0.089-0.217,0.169-0.283c0.021-0.014-0.014-0.092,0-0.113c0.028-0.039,0.081-0.061,0.114-0.111    c0.139-0.225,0.294-0.506,0.395-0.678c0.038-0.063,0.057-0.123,0.112-0.168c0.021-0.018-0.015-0.094,0-0.113    c0.03-0.043,0.081-0.059,0.112-0.114c0.033-0.058,0.021-0.103,0.058-0.168c0.017-0.031,0.091-0.078,0.112-0.113    c0.098-0.166,0.166-0.293,0.227-0.394c0.036-0.065,0.057-0.125,0.112-0.172c0.019-0.014-0.015-0.092,0-0.11    c0.028-0.041,0.08-0.06,0.112-0.113c0.033-0.057,0.021-0.104,0.058-0.168c0.017-0.032,0.092-0.077,0.112-0.114    c0.051-0.086,0.065-0.197,0.111-0.281c0.019-0.031,0.092-0.078,0.112-0.113c0.04-0.064,0.058-0.123,0.114-0.168    c0.018-0.016-0.016-0.094,0-0.115c0.027-0.041,0.08-0.059,0.111-0.111c0.033-0.057,0.022-0.104,0.057-0.17    c0.018-0.031,0.093-0.078,0.113-0.11c0.099-0.168,0.183-0.337,0.283-0.511c0.094-0.168,0.166-0.291,0.225-0.395    c0.033-0.057,0.021-0.107,0.057-0.17c0.014-0.021,0.096-0.031,0.113-0.055c0.031-0.041,0.033-0.133,0.057-0.17    c0.133-0.226,0.301-0.515,0.396-0.678c0.037-0.066,0.056-0.123,0.111-0.169c0.02-0.016-0.015-0.094,0-0.114    c0.028-0.039,0.08-0.062,0.112-0.111c0.144-0.229,0.301-0.514,0.396-0.678c0.037-0.064,0.057-0.123,0.112-0.168    c0.021-0.017-0.015-0.092,0-0.113c0.029-0.041,0.08-0.062,0.113-0.113c0.137-0.217,0.305-0.521,0.396-0.676    c0.037-0.066,0.057-0.125,0.112-0.172c0.021-0.014-0.015-0.092,0-0.111c0.028-0.041,0.082-0.059,0.114-0.113    c0.031-0.057,0.021-0.104,0.056-0.168c0.017-0.031,0.093-0.078,0.112-0.113c0.098-0.168,0.166-0.293,0.227-0.396    c0.037-0.065,0.057-0.123,0.111-0.168c0.02-0.016-0.014-0.094,0-0.114c0.029-0.041,0.082-0.06,0.113-0.111    c0.033-0.057,0.021-0.105,0.057-0.17c0.018-0.031,0.094-0.076,0.112-0.111c0.051-0.088,0.067-0.199,0.112-0.283    c0.019-0.031,0.092-0.076,0.113-0.113c0.04-0.063,0.057-0.121,0.112-0.168c0.019-0.016-0.015-0.092,0-0.113    c0.028-0.043,0.081-0.059,0.112-0.112c0.033-0.058,0.021-0.104,0.058-0.17c0.019-0.031,0.092-0.076,0.112-0.113    c0.051-0.086,0.068-0.196,0.113-0.28c0.019-0.031,0.09-0.078,0.112-0.111c0.04-0.066,0.056-0.125,0.113-0.172    c0.016-0.012-0.013-0.092,0-0.111c0.017-0.033,0.091-0.078,0.11-0.113c0.034-0.057,0.023-0.104,0.059-0.168    c0.016-0.031,0.092-0.078,0.111-0.113c0.053-0.088,0.067-0.198,0.112-0.282c0.019-0.031,0.093-0.078,0.112-0.113    c0.04-0.062,0.057-0.123,0.113-0.168c0.018-0.017-0.012-0.094,0-0.112c0.019-0.033,0.093-0.076,0.113-0.113    c0.065-0.117,0.088-0.217,0.17-0.281c0.019-0.016-0.016-0.092,0-0.113c0.027-0.041,0.08-0.061,0.111-0.113    c0.139-0.225,0.295-0.504,0.395-0.676c0.037-0.066,0.06-0.125,0.115-0.172c0.018-0.014-0.015-0.092,0-0.111    c0.027-0.041,0.077-0.062,0.111-0.113c0.133-0.211,0.307-0.522,0.395-0.678c0.039-0.063,0.058-0.123,0.112-0.168    c0.021-0.016-0.014-0.094,0-0.115c0.03-0.041,0.081-0.057,0.113-0.11c0.032-0.058,0.021-0.104,0.057-0.17    c0.019-0.031,0.093-0.076,0.112-0.111c0.1-0.168,0.167-0.293,0.227-0.396c0.039-0.064,0.057-0.121,0.112-0.168    c0.021-0.014-0.015-0.092,0-0.113c0.03-0.043,0.081-0.059,0.113-0.113c0.032-0.057,0.021-0.104,0.057-0.17    c0.017-0.031,0.093-0.076,0.112-0.113c0.051-0.086,0.066-0.196,0.113-0.28c0.018-0.031,0.09-0.078,0.112-0.111    c0.04-0.065,0.056-0.123,0.112-0.172c0.02-0.015-0.016-0.092,0-0.111c0.029-0.04,0.081-0.059,0.113-0.112    c0.033-0.058,0.021-0.105,0.057-0.17c0.016-0.031,0.093-0.076,0.111-0.111c0.052-0.088,0.066-0.197,0.113-0.283    c0.019-0.031,0.092-0.078,0.112-0.113c0.04-0.063,0.056-0.121,0.113-0.168c0.017-0.014-0.013-0.092,0-0.113    c0.019-0.03,0.092-0.075,0.112-0.112c0.033-0.058,0.021-0.104,0.057-0.17c0.018-0.031,0.093-0.076,0.113-0.111    c0.051-0.088,0.065-0.198,0.111-0.282c0.018-0.031,0.092-0.078,0.113-0.111c0.04-0.066,0.057-0.123,0.111-0.17    c0.019-0.017-0.01-0.094,0-0.113c0.02-0.033,0.094-0.076,0.113-0.113c0.033-0.057,0.021-0.104,0.057-0.168    c0.018-0.031,0.092-0.078,0.113-0.113c0.049-0.084,0.065-0.203,0.112-0.283c0.021-0.03,0.091-0.075,0.113-0.11    c0.04-0.063,0.056-0.123,0.112-0.17c0.018-0.015-0.013-0.095,0-0.113c0.018-0.032,0.092-0.075,0.111-0.112    c0.034-0.058,0.021-0.104,0.057-0.17c0.019-0.031,0.094-0.076,0.113-0.111c0.047-0.08,0.065-0.195,0.112-0.281    c0.006-0.01,0.05,0.004,0.058,0c0.019-0.016-0.013-0.094,0-0.115c0.019-0.031,0.092-0.074,0.112-0.111    c0.097-0.168,0.166-0.293,0.226-0.395c0.037-0.064,0.058-0.124,0.113-0.17c0.02-0.014-0.015-0.092,0-0.111    c0.029-0.043,0.081-0.061,0.112-0.113c0.034-0.059,0.022-0.105,0.057-0.17c0.017-0.03,0.093-0.076,0.113-0.112    c0.099-0.166,0.166-0.292,0.226-0.396c0.037-0.064,0.057-0.123,0.113-0.168c0.02-0.015-0.016-0.094,0-0.113    c0.029-0.043,0.081-0.06,0.112-0.113c0.032-0.057,0.022-0.104,0.056-0.169c0.018-0.031,0.094-0.077,0.113-0.112    c0.051-0.087,0.066-0.199,0.113-0.283c0.017-0.031,0.092-0.078,0.111-0.111c0.04-0.065,0.057-0.123,0.112-0.17    c0.021-0.015-0.015-0.092,0-0.113c0.03-0.042,0.083-0.059,0.114-0.113c0.031-0.057,0.021-0.104,0.056-0.168    c0.017-0.033,0.093-0.078,0.112-0.113c0.051-0.086,0.066-0.199,0.113-0.281c0.018-0.033,0.09-0.079,0.112-0.113    c0.04-0.066,0.056-0.123,0.112-0.169c0.019-0.015-0.012-0.093,0-0.113c0.019-0.032,0.092-0.077,0.113-0.112    c0.033-0.059,0.021-0.105,0.057-0.17c0.018-0.031,0.093-0.078,0.111-0.113c0.049-0.081,0.065-0.194,0.113-0.281    c0.018-0.033,0.092-0.079,0.113-0.113c0.04-0.064,0.057-0.124,0.111-0.171c0.019-0.013-0.012-0.092,0-0.11    c0.02-0.033,0.093-0.078,0.113-0.113c0.033-0.059,0.021-0.105,0.057-0.17c0.018-0.031,0.094-0.077,0.113-0.112    c0.043-0.075,0.068-0.209,0.111-0.282c0.021-0.033,0.092-0.076,0.114-0.113c0.039-0.064,0.055-0.123,0.112-0.168    c0.017-0.015-0.013-0.094,0-0.113c0.019-0.032,0.092-0.077,0.112-0.113c0.033-0.057,0.021-0.105,0.058-0.171    c0.017-0.031,0.093-0.075,0.111-0.111c0.043-0.077,0.069-0.206,0.112-0.283c0.019-0.031,0.094-0.075,0.112-0.112    c0.033-0.062,0.029-0.121,0.058-0.171c0.004-0.007,0.048,0.007,0.056,0c0.019-0.013-0.011-0.092,0-0.111    c0.02-0.032,0.094-0.077,0.113-0.113c0.034-0.057,0.021-0.104,0.057-0.168c0.019-0.033,0.092-0.078,0.113-0.115    c0.006-0.01-0.001-0.043,0-0.055c0.002-0.064,0.039-0.026,0.057-0.056c0.031-0.056,0.021-0.107,0.057-0.171    c0.02-0.031,0.093-0.075,0.113-0.112c0.031-0.061,0.027-0.12,0.057-0.169c0.004-0.008,0.048,0.006,0.057,0    c0.018-0.014-0.012-0.092,0-0.113c0.018-0.031,0.092-0.077,0.112-0.112c0.065-0.114,0.132-0.252,0.169-0.281    c0.02-0.017-0.014-0.094,0-0.114c0.029-0.042,0.082-0.059,0.113-0.113c0.033-0.057,0.021-0.105,0.056-0.171    c0.019-0.031,0.093-0.076,0.113-0.113c0.05-0.086,0.067-0.196,0.112-0.282c0.018-0.031,0.092-0.077,0.113-0.113    c0.039-0.064,0.057-0.121,0.112-0.168c0.019-0.015-0.015-0.092,0-0.112c0.028-0.042,0.081-0.059,0.112-0.113    c0.033-0.057,0.021-0.104,0.057-0.168c0.018-0.033,0.094-0.079,0.113-0.114c0.05-0.086,0.066-0.198,0.111-0.283    c0.019-0.032,0.092-0.079,0.113-0.113c0.039-0.064,0.057-0.122,0.113-0.169c0.018-0.014-0.012-0.092,0-0.113    c0.018-0.033,0.091-0.078,0.111-0.114c0.033-0.056,0.022-0.103,0.058-0.168c0.017-0.031,0.092-0.078,0.112-0.111    c0.052-0.089,0.059-0.184,0.113-0.282c0.018-0.033,0.092-0.081,0.111-0.113c0.04-0.068,0.057-0.124,0.113-0.171    c0.018-0.015-0.012-0.092,0-0.113c0.019-0.032,0.092-0.075,0.113-0.113c0.031-0.058,0.021-0.105,0.056-0.169    c0.017-0.031,0.093-0.077,0.112-0.113c0.049-0.086,0.066-0.203,0.113-0.282c0.02-0.033,0.09-0.077,0.112-0.113    c0.04-0.064,0.056-0.124,0.112-0.169c0.019-0.015-0.01-0.094,0-0.113c0.02-0.031,0.093-0.077,0.113-0.112    c0.032-0.059,0.021-0.106,0.057-0.171c0.018-0.031,0.093-0.078,0.111-0.113c0.045-0.075,0.072-0.205,0.114-0.282    c0.019-0.031,0.093-0.075,0.112-0.113c0.031-0.061,0.027-0.12,0.057-0.168c0.004-0.008,0.049,0.004,0.057,0    c0.019-0.015-0.013-0.094,0-0.115c0.019-0.031,0.092-0.075,0.112-0.111c0.033-0.056,0.021-0.104,0.058-0.168    c0.017-0.032,0.093-0.079,0.111-0.113c0.008-0.01-0.001-0.045,0-0.058c0.004-0.064,0.04-0.026,0.057-0.054    c0.033-0.057,0.022-0.107,0.057-0.17c0.02-0.033,0.094-0.076,0.113-0.113c0.031-0.061,0.029-0.122,0.057-0.169    c0.005-0.008,0.05,0.004,0.057,0c0.018-0.017-0.012-0.092,0-0.114c0.02-0.032,0.092-0.077,0.113-0.113    c0.033-0.059,0.025-0.12,0.057-0.168c0.026-0.043,0.108-0.103,0.112-0.169c0.003-0.064,0.04-0.025,0.058-0.057    c0.031-0.056,0.021-0.106,0.056-0.17c0.019-0.032,0.094-0.076,0.112-0.112c0.033-0.061,0.029-0.12,0.058-0.169    c0.004-0.01,0.05,0.007,0.058,0c0.016-0.015-0.013-0.093,0-0.113c0.018-0.033,0.092-0.078,0.111-0.113    c0.034-0.059,0.025-0.123,0.059-0.169c0.021-0.034,0.088-0.075,0.111-0.113c0.046-0.081,0.064-0.196,0.112-0.282    c0.005-0.008,0.049,0.005,0.057,0c0.019-0.015-0.011-0.093,0-0.115c0.019-0.031,0.093-0.075,0.113-0.111    c0.049-0.086,0.065-0.198,0.112-0.281c0.017-0.032,0.09-0.079,0.111-0.114c0.04-0.065,0.057-0.123,0.113-0.168    c0.018-0.015-0.012-0.093,0-0.113c0.02-0.033,0.093-0.078,0.113-0.114c0.033-0.057,0.021-0.103,0.056-0.168    c0.019-0.033,0.093-0.079,0.114-0.113c0.05-0.089,0.066-0.199,0.111-0.282c0.018-0.033,0.092-0.079,0.112-0.113    c0.04-0.064,0.056-0.124,0.113-0.171c0.018-0.013-0.011-0.092,0-0.111c0.018-0.035,0.091-0.077,0.112-0.113    c0.033-0.058,0.021-0.105,0.057-0.169c0.017-0.031,0.093-0.078,0.113-0.113c0.006-0.01,0-0.044,0-0.056    c0.002-0.065,0.039-0.028,0.057-0.057c0.029-0.057,0.021-0.108,0.057-0.169c0.02-0.032,0.09-0.077,0.112-0.113    c0.04-0.064,0.056-0.123,0.112-0.171c0.018-0.013-0.012-0.091,0-0.113c0.019-0.031,0.092-0.075,0.113-0.111    c0.032-0.057,0.021-0.105,0.057-0.171c0.017-0.031,0.093-0.075,0.111-0.111c0.045-0.075,0.07-0.205,0.113-0.282    c0.018-0.034,0.094-0.077,0.112-0.113c0.034-0.062,0.028-0.121,0.057-0.168c0.005-0.01,0.05,0.005,0.058,0    c0.018-0.015-0.012-0.094,0-0.114c0.019-0.032,0.092-0.077,0.113-0.113c0.032-0.057,0.021-0.104,0.057-0.17    c0.017-0.031,0.093-0.076,0.111-0.113c0.008-0.01,0-0.042,0-0.056c0.004-0.064,0.041-0.026,0.057-0.056    c0.031-0.057,0.021-0.107,0.058-0.171c0.019-0.031,0.095-0.075,0.112-0.113c0.033-0.059,0.027-0.12,0.057-0.168    c0.005-0.008,0.049,0.006,0.057,0c0.019-0.014-0.011-0.093,0-0.114c0.02-0.032,0.092-0.077,0.113-0.111    c0.033-0.06,0.026-0.121,0.057-0.168c0.025-0.044,0.108-0.103,0.112-0.171c0.003-0.064,0.04-0.026,0.056-0.057    c0.033-0.056,0.022-0.104,0.059-0.167c0.018-0.033,0.094-0.078,0.111-0.115c0.033-0.061,0.027-0.12,0.058-0.169    c0.004-0.008,0.049,0.005,0.056,0c0.02-0.013-0.012-0.092,0-0.113c0.02-0.033,0.092-0.078,0.113-0.114    c0.034-0.057,0.027-0.12,0.057-0.168c0.026-0.043,0.109-0.102,0.112-0.168c0.003-0.064,0.04-0.026,0.058-0.057    c0.031-0.057,0.021-0.106,0.058-0.169c0.019-0.034,0.092-0.076,0.112-0.112c0.031-0.062,0.026-0.121,0.056-0.171    c0.005-0.008,0.05,0.007,0.058,0c0.019-0.014-0.013-0.092,0-0.111c0.019-0.032,0.092-0.077,0.112-0.114    c0.033-0.059,0.024-0.12,0.058-0.169c0.021-0.034,0.09-0.074,0.111-0.113c0.053-0.09,0.062-0.192,0.112-0.284    c0.02-0.031,0.093-0.074,0.114-0.111c0.031-0.061,0.026-0.12,0.056-0.169c0.004-0.008,0.05,0.006,0.057,0    c0.017-0.013-0.012-0.094,0-0.113c0.019-0.033,0.093-0.076,0.112-0.112c0.007-0.011-0.001-0.046,0-0.057    c0.005-0.071,0.136-0.198,0.17-0.227c0.018-0.014-0.012-0.092,0-0.113c0.018-0.032,0.092-0.078,0.111-0.114    c0.035-0.056,0.022-0.103,0.058-0.168c0.017-0.031,0.092-0.077,0.112-0.111c0.007-0.011,0-0.045,0-0.057    c0.004-0.064,0.041-0.026,0.058-0.056c0.03-0.056,0.021-0.112,0.056-0.171c0.021-0.033,0.092-0.075,0.112-0.111    c0.04-0.065,0.058-0.125,0.114-0.17c0.018-0.015-0.012-0.094,0-0.113c0.018-0.033,0.092-0.075,0.111-0.113    c0.035-0.056,0.022-0.104,0.057-0.169c0.02-0.031,0.093-0.077,0.113-0.113c0.043-0.077,0.07-0.206,0.113-0.282    c0.018-0.031,0.094-0.075,0.111-0.113c0.034-0.062,0.027-0.12,0.059-0.168c0.004-0.008,0.047,0.004,0.055,0    c0.019-0.015-0.01-0.094,0-0.114c0.02-0.032,0.094-0.075,0.113-0.113c0.035-0.057,0.021-0.104,0.057-0.168    c0.019-0.032,0.093-0.079,0.113-0.114c0.006-0.01,0-0.044,0-0.056c0.002-0.065,0.039-0.026,0.057-0.057    c0.031-0.056,0.021-0.105,0.057-0.168c0.018-0.033,0.094-0.078,0.112-0.114c0.032-0.06,0.028-0.12,0.056-0.168    c0.006-0.008,0.051,0.005,0.059,0c0.018-0.015-0.012-0.092,0-0.113c0.018-0.033,0.091-0.078,0.111-0.114    c0.035-0.059,0.026-0.12,0.057-0.168c0.027-0.044,0.109-0.102,0.113-0.171c0.004-0.062,0.039-0.026,0.058-0.056    c0.03-0.057,0.021-0.106,0.056-0.168c0.02-0.035,0.094-0.075,0.113-0.114c0.031-0.06,0.027-0.121,0.056-0.168    c0.007-0.008,0.05,0.007,0.058,0c0.018-0.015-0.012-0.093,0-0.113c0.019-0.033,0.092-0.078,0.113-0.114    c0.032-0.059,0.025-0.12,0.057-0.168c0.021-0.035,0.091-0.074,0.111-0.113c0.047-0.081,0.065-0.197,0.113-0.282    c0.018-0.033,0.094-0.075,0.111-0.113c0.035-0.062,0.029-0.12,0.058-0.171c0.005-0.008,0.05,0.007,0.058,0    c0.018-0.013-0.012-0.092,0-0.111c0.019-0.033,0.092-0.077,0.112-0.113c0.033-0.061,0.026-0.122,0.056-0.169    c0.022-0.034,0.092-0.075,0.113-0.113c0.047-0.082,0.064-0.196,0.113-0.282c0.018-0.032,0.092-0.075,0.111-0.113    c0.033-0.062,0.029-0.121,0.058-0.17c0.004-0.006,0.049,0.006,0.056,0c0.02-0.013-0.011-0.092,0-0.113    c0.021-0.031,0.094-0.075,0.114-0.111c0.033-0.06,0.026-0.12,0.056-0.171c0.021-0.032,0.092-0.074,0.113-0.113    c0.049-0.085,0.066-0.202,0.113-0.282c0.018-0.032,0.092-0.075,0.111-0.111c0.033-0.06,0.027-0.121,0.058-0.168    c0.024-0.044,0.028-0.078,0.056-0.114c0.026-0.037,0.088-0.074,0.112-0.114c0.035-0.054,0.028-0.123,0.058-0.167    c0.021-0.035,0.09-0.075,0.112-0.115c0.051-0.086,0.058-0.185,0.112-0.281c0.006-0.008,0.05,0.006,0.058,0    c0.019-0.014-0.012-0.092,0-0.112c0.019-0.032,0.093-0.076,0.112-0.114c0.046-0.081,0.064-0.194,0.113-0.281    c0.019-0.032,0.092-0.077,0.112-0.113c0.032-0.061,0.027-0.12,0.056-0.168c0.006-0.008,0.049,0.004,0.058,0    c0.019-0.015-0.013-0.093,0-0.115c0.019-0.031,0.092-0.075,0.112-0.113c0.033-0.056,0.021-0.103,0.057-0.169    c0.018-0.031,0.093-0.077,0.113-0.112c0.006-0.011-0.002-0.043,0-0.058c0.002-0.063,0.039-0.025,0.057-0.055    c0.031-0.057,0.021-0.106,0.057-0.168c0.02-0.033,0.094-0.077,0.113-0.114c0.032-0.06,0.027-0.121,0.057-0.17    c0.004-0.007,0.049,0.006,0.057,0c0.017-0.015-0.012-0.092,0-0.111c0.018-0.033,0.092-0.078,0.111-0.115    C86.232,15.159,86.225,15.096,86.255,15.049z M8.942,23.625c-0.004-0.089-0.157-0.272-0.226-0.395    c-0.043-0.081-0.072-0.157-0.114-0.226c-0.021-0.037-0.093-0.079-0.111-0.112c-0.012-0.02,0.017-0.1,0-0.113    c-0.007-0.008-0.052,0.008-0.057,0c-0.012-0.02,0.018-0.1,0-0.113c-0.056-0.044-0.074-0.048-0.112-0.114    c-0.023-0.038-0.026-0.126-0.057-0.168c-0.018-0.025-0.1-0.033-0.113-0.057c-0.011-0.021,0.018-0.099,0-0.112    c-0.006-0.004-0.053,0.005-0.056,0c-0.01-0.021,0.016-0.099,0-0.114c-0.008-0.005-0.053,0.01-0.056,0    c-0.042-0.07-0.068-0.196-0.113-0.282c-0.016-0.029-0.054,0.008-0.058-0.056c-0.004-0.086-0.157-0.27-0.225-0.395    C7.6,21.287,7.57,21.211,7.53,21.144c-0.021-0.036-0.095-0.081-0.113-0.114c-0.012-0.021,0.018-0.1,0-0.113    c-0.052-0.042-0.107-0.12-0.169-0.227c-0.021-0.038-0.026-0.127-0.056-0.168c-0.019-0.025-0.1-0.033-0.114-0.056    c-0.013-0.021,0.019-0.1,0-0.115c-0.006-0.004-0.052,0.008-0.056,0c-0.01-0.021,0.017-0.098,0-0.113    c-0.034-0.026-0.166-0.157-0.17-0.224c0,0-0.045-0.156-0.056-0.169c-0.018-0.021-0.1-0.034-0.113-0.057    c-0.045-0.081-0.066-0.195-0.112-0.284c-0.031-0.053-0.11-0.102-0.113-0.167c-0.001-0.013,0.005-0.046,0-0.056    c-0.021-0.038-0.095-0.082-0.115-0.115c-0.01-0.021,0.019-0.097,0-0.113c-0.047-0.039-0.102-0.108-0.167-0.224    c-0.022-0.038-0.026-0.128-0.057-0.171c-0.018-0.022-0.1-0.031-0.113-0.056c-0.012-0.02,0.019-0.099,0-0.113    c-0.007-0.007-0.054,0.008-0.057,0c-0.009-0.021,0.017-0.099,0-0.114c-0.007-0.006-0.052,0.01-0.057,0    c-0.046-0.08-0.064-0.195-0.113-0.28c-0.033-0.059-0.14-0.117-0.169-0.171c-0.046-0.081-0.065-0.196-0.113-0.281    c-0.029-0.054-0.108-0.104-0.113-0.169c0-0.011,0.007-0.047,0-0.057c-0.021-0.036-0.094-0.081-0.112-0.113    c-0.013-0.021,0.017-0.097,0-0.112c-0.008-0.006-0.052,0.008-0.057,0c-0.048-0.078-0.072-0.158-0.112-0.226    c-0.032-0.054-0.083-0.072-0.114-0.114c-0.014-0.02,0.02-0.098,0-0.113c-0.007-0.007-0.052,0.008-0.056,0    c-0.011-0.021,0.018-0.099,0-0.111c-0.006-0.006-0.054,0.005-0.057,0c-0.009-0.021,0.017-0.102,0-0.113    c-0.034-0.03-0.165-0.156-0.168-0.228c0,0.002-0.045-0.153-0.058-0.169c-0.017-0.023-0.099-0.034-0.111-0.056    c-0.046-0.08-0.066-0.196-0.113-0.281c-0.029-0.053-0.109-0.104-0.114-0.169c-0.005-0.095-0.11-0.185-0.169-0.281    c-0.049-0.083-0.068-0.147-0.113-0.227c-0.032-0.054-0.082-0.071-0.113-0.113c-0.014-0.02,0.02-0.099,0-0.113    c-0.006-0.005-0.051,0.006-0.057,0c-0.01-0.021,0.018-0.101,0-0.113c-0.007-0.005-0.052,0.008-0.056,0    c-0.009-0.02,0.016-0.1,0-0.113c-0.067-0.056-0.163-0.1-0.168-0.225c-0.005-0.073-0.083-0.072-0.114-0.113    c-0.015-0.021,0.02-0.099,0-0.113c-0.038-0.033-0.102-0.163-0.168-0.282C3.337,13.89,3.3,13.927,3.297,13.863    c0-0.011-0.041-0.143-0.056-0.171c-0.021-0.04-0.085-0.076-0.111-0.112c-0.048-0.065-0.103-0.228-0.168-0.339    c-0.093-0.156-0.192-0.295-0.283-0.449c-0.029-0.049-0.108-0.146-0.113-0.227c-0.003-0.074-0.082-0.071-0.113-0.114    c-0.014-0.018,0.02-0.097,0-0.113c-0.038-0.032-0.102-0.161-0.169-0.281C2.266,12.026,2.23,12.064,2.228,12    c-0.001-0.008-0.042-0.143-0.057-0.169c-0.023-0.041-0.087-0.077-0.113-0.113c-0.052-0.072-0.099-0.221-0.168-0.338    c-0.021-0.038-0.095-0.082-0.113-0.113c-0.011-0.021,0.017-0.099,0-0.113c-0.007-0.007-0.053,0.006-0.058,0    c-0.01-0.022,0.019-0.099,0-0.113c-0.055-0.046-0.074-0.046-0.111-0.113C0.869,9.649,0.203,8.382,0.422,6.357    c0.046-0.426,0.104-0.839,0.225-1.242c0.029-0.1,0.082-0.184,0.113-0.282c0.046-0.146,0.044-0.234,0.113-0.337    c0.015-0.022,0.038-0.153,0.056-0.17c0.07-0.056,0.094-0.227,0.17-0.34C1.17,3.882,1.231,3.747,1.326,3.591    C1.356,3.54,1.409,3.52,1.437,3.479c0.016-0.021-0.018-0.099,0-0.113c0.01-0.007,0.052,0.007,0.058,0    C1.542,3.292,1.562,3.204,1.607,3.14c0.027-0.038,0.085-0.075,0.111-0.111C2.259,2.291,3.085,1.577,3.977,1.11    c0.671-0.353,1.392-0.577,2.257-0.677c0.037-0.007,0.076,0.003,0.112,0c-0.002,0,0.02-0.054,0.058-0.056    c0.954-0.072,1.96,0,2.934,0c22.391,0,44.999,0,67.494,0c4.322,0,9.836,0,14.672,0c1.014,0,2.008-0.061,2.878,0.056    c1.944,0.26,3.288,1.248,4.231,2.369c0.061,0.072,0.111,0.15,0.171,0.229c0.096,0.126,0.136,0.177,0.225,0.338    c0.017,0.031,0.054-0.008,0.058,0.057c0.004,0.072,0.082,0.07,0.113,0.111c0.016,0.021-0.02,0.099,0,0.113    c0.062,0.053,0.137,0.259,0.225,0.396c0.021,0.033,0.054-0.01,0.058,0.055c0.005,0.097,0.192,0.479,0.226,0.566    c0.033,0.086,0.082,0.187,0.113,0.282c0.077,0.248,0.172,0.526,0.227,0.847c0.101,0.585,0.146,1.367,0.056,2.029    c-0.056,0.423-0.163,0.805-0.281,1.185c-0.063,0.205-0.116,0.459-0.226,0.623c-0.014,0.02-0.037,0.152-0.057,0.167    c-0.068,0.056-0.095,0.227-0.17,0.339c-0.072,0.108-0.139,0.242-0.226,0.395c-0.032,0.056-0.084,0.071-0.114,0.113    c-0.014,0.022,0.02,0.099,0,0.114c-0.007,0.006-0.052-0.007-0.056,0c-0.013,0.021,0.017,0.098,0,0.111    c-0.007,0.004-0.054-0.005-0.058,0c-0.01,0.021,0.018,0.102,0,0.113c-0.008,0.007-0.051-0.007-0.056,0    c-0.045,0.078-0.165,0.25-0.17,0.339c-0.004,0.072-0.088,0.071-0.112,0.113c-0.049,0.084-0.056,0.179-0.113,0.282    c-0.016,0.029-0.053-0.008-0.057,0.057c0,0.008-0.041,0.143-0.057,0.169c-0.023,0.039-0.086,0.077-0.111,0.113    c-0.05,0.065-0.105,0.227-0.171,0.339c-0.03,0.054-0.083,0.069-0.112,0.11c-0.015,0.021,0.02,0.1,0,0.114    c-0.008,0.005-0.053-0.006-0.057,0c-0.012,0.022,0.018,0.099,0,0.114c-0.007,0.004-0.054-0.007-0.056,0    c-0.011,0.02,0.016,0.1,0,0.113c-0.068,0.056-0.163,0.1-0.171,0.225c-0.004,0.074-0.081,0.072-0.112,0.113    c-0.015,0.021,0.019,0.099,0,0.113c-0.037,0.032-0.101,0.158-0.169,0.282c-0.018,0.029-0.055-0.007-0.057,0.056    c-0.002,0.01-0.041,0.143-0.058,0.168c-0.022,0.043-0.087,0.079-0.112,0.115c-0.051,0.067-0.099,0.218-0.17,0.339    c-0.09,0.15-0.193,0.302-0.281,0.451c-0.028,0.047-0.108,0.145-0.112,0.224c-0.003,0.074-0.082,0.072-0.112,0.115    c-0.016,0.02,0.02,0.097,0,0.112c-0.039,0.033-0.103,0.162-0.17,0.282c-0.017,0.03-0.054-0.007-0.057,0.057    c-0.005,0.086-0.158,0.272-0.227,0.395c-0.037,0.069-0.066,0.146-0.111,0.225c-0.021,0.038-0.096,0.082-0.114,0.115    c-0.01,0.02,0.019,0.097,0,0.111c-0.007,0.007-0.051-0.008-0.056,0c-0.014,0.021,0.017,0.099,0,0.113    c-0.057,0.044-0.074,0.045-0.112,0.113c-1.771,3.074-3.603,6.262-5.36,9.312c-0.033,0.054-0.084,0.067-0.113,0.112    c-0.016,0.019,0.02,0.098,0,0.113c-0.008,0.006-0.053-0.008-0.057,0c-0.012,0.02,0.018,0.098,0,0.113    c-0.007,0.004-0.054-0.007-0.057,0c-0.012,0.02,0.018,0.1,0,0.113c-0.068,0.054-0.163,0.102-0.17,0.227    c-0.001,0.011,0.007,0.046,0,0.056c-0.039,0.062-0.137,0.111-0.169,0.168c-0.048,0.081-0.065,0.197-0.113,0.284    c-0.017,0.028-0.053-0.01-0.058,0.054c0,0.01-0.041,0.145-0.055,0.171c-0.023,0.041-0.088,0.077-0.113,0.113    c-0.049,0.065-0.104,0.228-0.17,0.338c-0.086,0.149-0.191,0.299-0.281,0.452c-0.029,0.047-0.109,0.145-0.113,0.225    c-0.003,0.072-0.082,0.07-0.111,0.115c-0.016,0.02,0.019,0.096,0,0.111c-0.039,0.033-0.104,0.163-0.17,0.284    c-0.018,0.028-0.055-0.008-0.057,0.056c-0.001,0.008-0.042,0.142-0.057,0.168c-0.023,0.043-0.088,0.076-0.112,0.114    c-0.052,0.068-0.101,0.218-0.17,0.337c-0.021,0.039-0.095,0.082-0.112,0.114c-0.012,0.021,0.018,0.1,0,0.113    c-0.008,0.007-0.053-0.008-0.058,0c-0.011,0.02,0.018,0.099,0,0.113c-0.104,0.088-0.093,0.105-0.169,0.282    c-0.012,0.026-0.055-0.003-0.057,0.057c-0.004,0.071-0.082,0.071-0.113,0.114c-0.016,0.02,0.02,0.096,0,0.113    c-0.047,0.036-0.092,0.139-0.168,0.282c-0.018,0.028-0.055-0.008-0.057,0.056c-0.006,0.086-0.158,0.271-0.228,0.395    c-0.043,0.081-0.072,0.157-0.112,0.224c-0.021,0.038-0.095,0.081-0.113,0.115c-0.011,0.02,0.02,0.096,0,0.111    c-0.007,0.007-0.051-0.008-0.057,0c-0.012,0.02,0.02,0.1,0,0.111c-0.057,0.047-0.072,0.047-0.111,0.115    c-0.022,0.035-0.024,0.125-0.057,0.168c-0.02,0.022-0.102,0.035-0.113,0.057c-0.013,0.018,0.018,0.099,0,0.113    c-0.007,0.005-0.054-0.006-0.057,0c-0.012,0.021,0.016,0.099,0,0.112c-0.033,0.029-0.166,0.156-0.169,0.226    c-0.005,0.081-0.106,0.124-0.113,0.227c-0.003,0.047-0.086,0.124-0.112,0.169c-0.043,0.07-0.104,0.226-0.168,0.339    c-0.021,0.036-0.096,0.081-0.115,0.111c-0.01,0.022,0.019,0.1,0,0.114c-0.047,0.041-0.102,0.11-0.168,0.226    c-0.021,0.038-0.024,0.126-0.057,0.171c-0.019,0.022-0.1,0.031-0.113,0.054c-0.012,0.021,0.019,0.1,0,0.113    c-0.006,0.007-0.053-0.007-0.057,0c-0.01,0.021,0.018,0.1,0,0.115c-0.008,0.004-0.052-0.008-0.057,0    c-0.04,0.07-0.068,0.196-0.113,0.281c-0.015,0.03-0.054-0.008-0.056,0.056c-0.005,0.09-0.108,0.182-0.169,0.282    c-0.038,0.062-0.055,0.135-0.114,0.227c-0.021,0.031-0.054-0.01-0.056,0.056c-0.002,0.013,0.007,0.047,0,0.057    c-0.021,0.036-0.096,0.081-0.112,0.112c-0.013,0.021,0.017,0.1,0,0.113c-0.054,0.042-0.104,0.111-0.17,0.226    c-0.021,0.038-0.024,0.128-0.058,0.171c-0.018,0.022-0.099,0.031-0.111,0.056c-0.014,0.02,0.018,0.098,0,0.113    c-0.008,0.005-0.055-0.008-0.057,0c-0.011,0.02,0.017,0.1,0,0.113c-0.035,0.026-0.166,0.156-0.17,0.225    c0,0.013,0.006,0.047,0,0.056c-0.035,0.058-0.138,0.117-0.168,0.171c-0.052,0.085-0.062,0.185-0.115,0.282    c-0.027,0.054-0.107,0.103-0.111,0.17c0,0.01,0.006,0.044,0,0.056c-0.021,0.036-0.096,0.081-0.111,0.113    c-0.013,0.02,0.016,0.097,0,0.113c-0.051,0.04-0.104,0.108-0.171,0.225c-0.03,0.056-0.083,0.071-0.112,0.113    c-0.015,0.022,0.02,0.099,0,0.114c-0.008,0.004-0.052-0.007-0.057,0c-0.012,0.02,0.018,0.098,0,0.113    c-0.007,0.004-0.054-0.008-0.057,0c-0.01,0.02,0.017,0.099,0,0.111c-0.068,0.057-0.163,0.103-0.17,0.228    c0-0.001-0.045,0.152-0.057,0.167c-0.018,0.025-0.102,0.036-0.113,0.058c-0.045,0.08-0.063,0.195-0.111,0.282    c-0.029,0.054-0.109,0.104-0.111,0.168c-0.008,0.097-0.113,0.184-0.171,0.284c-0.039,0.068-0.075,0.163-0.112,0.225    c-0.033,0.056-0.082,0.07-0.113,0.113c-0.014,0.021,0.02,0.099,0,0.113c-0.008,0.007-0.051-0.006-0.057,0    c-0.012,0.021,0.019,0.099,0,0.112c-0.007,0.004-0.054-0.005-0.057,0c-0.01,0.022,0.018,0.102,0,0.114    c-0.007,0.005-0.052-0.008-0.057,0c-0.045,0.079-0.063,0.196-0.112,0.282c-0.033,0.057-0.14,0.113-0.17,0.168    c-0.047,0.083-0.056,0.179-0.112,0.282c-0.018,0.029-0.054-0.008-0.057,0.057c0,0.008-0.041,0.143-0.057,0.169    c-0.023,0.041-0.086,0.077-0.112,0.113c-0.052,0.069-0.099,0.213-0.169,0.339c-0.032,0.054-0.084,0.068-0.113,0.111    c-0.016,0.02,0.02,0.099,0,0.113c-0.008,0.007-0.053-0.008-0.057,0c-0.012,0.022,0.017,0.099,0,0.114    c-0.006,0.004-0.055-0.007-0.057,0c-0.011,0.021,0.016,0.099,0,0.113c-0.068,0.056-0.162,0.102-0.171,0.225    c-0.003,0.073-0.081,0.072-0.112,0.113c-0.015,0.021,0.02,0.098,0,0.113c-0.047,0.038-0.092,0.142-0.17,0.284    c-0.016,0.029-0.052-0.008-0.056,0.056c-0.001,0.008-0.042,0.141-0.057,0.168c-0.023,0.042-0.087,0.078-0.112,0.114    c-0.053,0.07-0.1,0.221-0.17,0.337c-0.089,0.152-0.189,0.295-0.282,0.453c-0.028,0.049-0.108,0.144-0.112,0.224    c-0.004,0.073-0.082,0.072-0.111,0.115c-0.016,0.02,0.018,0.096,0,0.111c-0.049,0.039-0.094,0.142-0.17,0.281    c-0.018,0.032-0.055-0.006-0.057,0.058c-0.004,0.087-0.158,0.271-0.227,0.395c-0.044,0.08-0.073,0.157-0.113,0.224    c-0.021,0.038-0.095,0.082-0.111,0.115c-0.012,0.02,0.018,0.097,0,0.113c-0.008,0.004-0.053-0.011-0.057,0    c-0.013,0.019,0.018,0.097,0,0.11c-0.107,0.087-0.093,0.106-0.17,0.282c-0.012,0.025-0.054-0.003-0.057,0.057    c-0.004,0.072-0.082,0.072-0.113,0.111c-0.016,0.021,0.02,0.1,0,0.113c-0.007,0.007-0.051-0.008-0.057,0    c-0.045,0.08-0.062,0.188-0.112,0.283c-0.015,0.028-0.054-0.006-0.058,0.058c-0.004,0.087-0.157,0.271-0.226,0.396    c-0.036,0.063-0.073,0.158-0.112,0.225c-0.021,0.035-0.094,0.082-0.112,0.115c-0.011,0.02,0.019,0.097,0,0.11    c-0.009,0.006-0.052-0.008-0.058,0c-0.013,0.021,0.018,0.101,0,0.113c-0.056,0.046-0.074,0.047-0.111,0.112    c-0.022,0.037-0.025,0.127-0.057,0.17c-0.02,0.023-0.101,0.033-0.113,0.057c-0.014,0.02,0.019,0.1,0,0.111    c-0.008,0.007-0.055-0.004-0.057,0c-0.011,0.021,0.016,0.101,0,0.113c-0.008,0.006-0.053-0.007-0.057,0    c-0.041,0.071-0.068,0.198-0.113,0.283c-0.015,0.028-0.053-0.008-0.056,0.057c-0.005,0.086-0.158,0.271-0.228,0.395    c-0.045,0.086-0.065,0.148-0.112,0.227c-0.021,0.036-0.095,0.082-0.112,0.112c-0.012,0.021,0.018,0.101,0,0.112    c-0.052,0.043-0.107,0.119-0.169,0.227c-0.022,0.037-0.024,0.127-0.058,0.17c-0.019,0.023-0.1,0.031-0.112,0.057    c-0.013,0.021,0.019,0.098,0,0.113c-0.006,0.004-0.054-0.009-0.056,0c-0.012,0.02,0.016,0.1,0,0.112    c-0.035,0.027-0.166,0.156-0.17,0.226c0,0-0.045,0.155-0.058,0.168c-0.019,0.024-0.1,0.035-0.112,0.058    c-0.043,0.078-0.062,0.188-0.111,0.282c-0.03,0.054-0.11,0.104-0.114,0.171c0,0.011,0.007,0.044,0,0.056    c-0.021,0.036-0.095,0.081-0.112,0.112c-0.012,0.021,0.019,0.1,0,0.112c-0.053,0.043-0.103,0.111-0.17,0.227    c-0.021,0.038-0.023,0.129-0.056,0.169c-0.019,0.024-0.101,0.033-0.113,0.058c-0.012,0.021,0.019,0.098,0,0.113    c-0.007,0.006-0.053-0.008-0.056,0c-0.01,0.02,0.018,0.098,0,0.111c-0.008,0.008-0.053-0.008-0.059,0    c-0.054,0.09-0.061,0.193-0.111,0.283c-0.033,0.059-0.139,0.115-0.169,0.168c-0.05,0.086-0.056,0.178-0.113,0.283    c-0.028,0.055-0.108,0.104-0.112,0.17c0,0.012,0.006,0.047,0,0.055c-0.021,0.039-0.095,0.082-0.111,0.115    c-0.012,0.02,0.017,0.098,0,0.11c-0.01,0.009-0.053-0.008-0.059,0c-0.047,0.078-0.072,0.158-0.111,0.228    c-0.031,0.055-0.084,0.07-0.113,0.113c-0.014,0.02,0.02,0.098,0,0.112c-0.008,0.006-0.053-0.008-0.057,0    c-0.012,0.021,0.018,0.099,0,0.111c-0.008,0.006-0.054-0.007-0.058,0c-0.009,0.02,0.019,0.1,0,0.112    c-0.067,0.056-0.161,0.103-0.169,0.228c0-0.002-0.045,0.151-0.056,0.168c-0.019,0.022-0.101,0.035-0.114,0.058    c-0.045,0.081-0.064,0.196-0.111,0.28c-0.029,0.056-0.109,0.104-0.113,0.17c-0.006,0.097-0.111,0.187-0.17,0.283    c-0.045,0.078-0.072,0.155-0.111,0.226c-0.032,0.057-0.083,0.069-0.113,0.112c-0.015,0.021,0.02,0.101,0,0.113    c-0.007,0.006-0.052-0.009-0.057,0c-0.012,0.02,0.02,0.098,0,0.11c-0.006,0.006-0.055-0.006-0.057,0    c-0.011,0.021,0.017,0.103,0,0.115c-0.067,0.055-0.162,0.102-0.168,0.225c-0.002,0.013,0.004,0.047,0,0.058    c-0.039,0.062-0.137,0.108-0.17,0.17c-0.049,0.084-0.056,0.176-0.113,0.281c-0.017,0.028-0.053-0.009-0.057,0.057    c-0.002,0.009-0.041,0.144-0.058,0.168c-0.022,0.043-0.086,0.078-0.112,0.115c-0.051,0.067-0.099,0.217-0.169,0.338    c-0.089,0.151-0.198,0.312-0.282,0.451c-0.027,0.049-0.107,0.146-0.113,0.225c-0.004,0.074-0.082,0.072-0.111,0.113    c-0.016,0.021,0.02,0.099,0,0.112c-0.047,0.039-0.092,0.144-0.17,0.283c-0.018,0.029-0.053-0.008-0.057,0.056    c0,0.008-0.041,0.143-0.057,0.17c-0.023,0.043-0.087,0.075-0.113,0.112c-0.049,0.068-0.098,0.218-0.168,0.338    c-0.021,0.037-0.096,0.082-0.113,0.113c-0.012,0.021,0.018,0.101,0,0.113c-0.008,0.004-0.053-0.008-0.057,0    c-0.013,0.02,0.018,0.098,0,0.111c-0.106,0.09-0.093,0.107-0.17,0.283c-0.012,0.024-0.054-0.004-0.057,0.057    c-0.003,0.072-0.082,0.072-0.112,0.113c-0.015,0.02,0.019,0.098,0,0.111c-0.048,0.038-0.092,0.145-0.17,0.282    c-0.016,0.029-0.054-0.008-0.056,0.058c-0.006,0.088-0.158,0.271-0.227,0.395c-0.045,0.086-0.067,0.148-0.113,0.227    c-0.021,0.035-0.094,0.08-0.111,0.113c-0.012,0.02,0.018,0.098,0,0.111c-0.008,0.006-0.053-0.008-0.059,0    c-0.01,0.021,0.02,0.1,0,0.113c-0.055,0.045-0.073,0.047-0.111,0.11c-0.021,0.039-0.025,0.129-0.057,0.172    c-0.019,0.023-0.1,0.033-0.112,0.058c-0.013,0.02,0.019,0.096,0,0.111c-0.007,0.006-0.054-0.007-0.058,0    c-0.01,0.021,0.018,0.1,0,0.112c-0.008,0.006-0.052-0.008-0.057,0c-0.041,0.072-0.068,0.197-0.111,0.283    c-0.017,0.028-0.055-0.009-0.058,0.057c-0.005,0.086-0.157,0.271-0.228,0.394c-0.043,0.082-0.071,0.158-0.111,0.229    c-0.021,0.035-0.096,0.08-0.113,0.111c-0.011,0.021,0.018,0.098,0,0.113c-0.051,0.041-0.107,0.117-0.169,0.225    c-0.022,0.039-0.024,0.129-0.056,0.172c-0.02,0.021-0.102,0.031-0.114,0.055c-0.012,0.021,0.021,0.098,0,0.113    c-0.006,0.004-0.053-0.006-0.056,0c-0.012,0.021,0.016,0.098,0,0.113c-0.008,0.004-0.053-0.008-0.057,0    c-0.041,0.072-0.068,0.195-0.113,0.281c-0.014,0.03-0.053-0.008-0.057,0.055c-0.005,0.092-0.106,0.184-0.17,0.283    c-0.037,0.062-0.053,0.135-0.111,0.227c-0.021,0.031-0.053-0.01-0.057,0.055c-0.002,0.014,0.006,0.047,0,0.058    c-0.021,0.036-0.097,0.081-0.113,0.114c-0.012,0.021,0.018,0.099,0,0.111c-0.047,0.039-0.103,0.109-0.17,0.227    c-0.021,0.039-0.023,0.127-0.057,0.168c-0.018,0.025-0.1,0.035-0.111,0.058c-0.013,0.022,0.018,0.101,0,0.115    c-0.008,0.004-0.055-0.011-0.058,0c-0.01,0.018,0.017,0.098,0,0.11c-0.034,0.027-0.165,0.156-0.17,0.226    c0,0-0.045,0.155-0.056,0.17c-0.02,0.022-0.102,0.035-0.113,0.06c-0.049,0.082-0.057,0.176-0.112,0.28    c-0.03,0.054-0.11,0.104-0.112,0.168c-0.002,0.015,0.006,0.047,0,0.058c-0.021,0.037-0.096,0.08-0.112,0.112    c-0.013,0.021,0.017,0.099,0,0.113c-0.054,0.043-0.104,0.11-0.171,0.225c-0.021,0.037-0.024,0.13-0.057,0.171    c-0.018,0.022-0.099,0.032-0.111,0.057c-0.012,0.02,0.018,0.098,0,0.111c-0.008,0.008-0.055-0.007-0.057,0    c-0.011,0.021,0.016,0.1,0,0.114c-0.009,0.007-0.053-0.01-0.058,0c-0.044,0.074-0.165,0.25-0.169,0.338    c-0.004,0.072-0.09,0.07-0.112,0.111c-0.054,0.096-0.052,0.172-0.114,0.282c-0.027,0.056-0.107,0.104-0.111,0.171    c-0.006,0.096-0.111,0.184-0.17,0.28c-0.036,0.064-0.073,0.158-0.112,0.228c-0.031,0.056-0.082,0.067-0.112,0.112    c-0.015,0.021,0.02,0.099,0,0.111c-0.008,0.006-0.052-0.006-0.057,0c-0.012,0.021,0.018,0.101,0,0.113    c-0.007,0.004-0.053-0.006-0.057,0c-0.01,0.02,0.017,0.1,0,0.111c-0.068,0.059-0.164,0.104-0.17,0.229    c0-0.002-0.045,0.154-0.057,0.168c-0.018,0.023-0.102,0.033-0.113,0.057c-0.045,0.08-0.063,0.195-0.111,0.283    c-0.018,0.029-0.055-0.01-0.057,0.058c0,0.008-0.041,0.143-0.057,0.168c-0.023,0.041-0.088,0.077-0.113,0.112    c-0.053,0.072-0.101,0.22-0.17,0.34c-0.031,0.056-0.082,0.068-0.113,0.111c-0.014,0.021,0.021,0.098,0,0.113    c-0.006,0.006-0.051-0.008-0.056,0c-0.012,0.021,0.019,0.1,0,0.111c-0.007,0.006-0.054-0.006-0.057,0    c-0.011,0.021,0.017,0.102,0,0.113c-0.067,0.057-0.162,0.102-0.169,0.227c-0.004,0.072-0.082,0.07-0.113,0.113    c-0.016,0.021,0.02,0.096,0,0.113c-0.039,0.03-0.102,0.159-0.169,0.28c-0.019,0.031-0.054-0.008-0.056,0.056    c-0.002,0.012-0.043,0.145-0.059,0.172c-0.021,0.039-0.086,0.076-0.111,0.11c-0.053,0.072-0.101,0.222-0.17,0.338    c-0.088,0.15-0.192,0.3-0.281,0.453c-0.028,0.05-0.108,0.144-0.114,0.226c-0.003,0.071-0.081,0.071-0.112,0.114    c-0.015,0.019,0.02,0.097,0,0.111c-0.037,0.03-0.1,0.158-0.17,0.28c-0.016,0.029-0.052-0.006-0.056,0.058    c-0.004,0.09-0.157,0.271-0.226,0.396c-0.035,0.062-0.074,0.158-0.113,0.226c-0.021,0.037-0.096,0.08-0.112,0.115    c-0.012,0.018,0.017,0.096,0,0.11c-0.008,0.006-0.052-0.01-0.058,0c-0.012,0.021,0.019,0.099,0,0.113    c-0.055,0.043-0.073,0.047-0.112,0.111c-0.713,1.24-1.417,2.471-2.144,3.727c-1.01,1.74-2.15,3.734-3.217,5.586    c-0.031,0.055-0.084,0.07-0.113,0.111c-0.014,0.021,0.019,0.1,0,0.115c-0.008,0.006-0.053-0.01-0.057,0    c-0.012,0.018,0.018,0.098,0,0.111c-0.008,0.006-0.054-0.009-0.058,0c-0.009,0.02,0.019,0.1,0,0.112    c-0.067,0.056-0.162,0.103-0.169,0.226c-0.003,0.073-0.082,0.071-0.113,0.112c-0.015,0.021,0.02,0.099,0,0.113    c-0.047,0.039-0.09,0.144-0.169,0.282c-0.017,0.027-0.053-0.008-0.056,0.056c-0.002,0.008-0.043,0.144-0.057,0.17    c-0.023,0.041-0.088,0.076-0.113,0.111c-0.047,0.065-0.1,0.229-0.17,0.34c-0.024,0.043-0.086,0.078-0.112,0.112    c-0.042,0.058-0.054,0.134-0.112,0.228c-0.021,0.031-0.054-0.01-0.057,0.058c-0.004,0.094-0.163,0.112-0.17,0.225    c-0.008,0.152-0.41,0.41-0.562,0.564c-0.121,0.118-0.219,0.291-0.34,0.395c-0.046,0.039-0.117,0.018-0.17,0.059    c-0.025,0.018-0.029,0.094-0.057,0.111c-0.062,0.043-0.17,0.072-0.227,0.113c-0.045,0.031-0.056,0.078-0.111,0.11    c-0.037,0.023-0.075,0.031-0.112,0.058c-0.062,0.045-0.104,0.129-0.17,0.17c-0.058,0.035-0.115,0.029-0.169,0.057    c-0.063,0.033-0.135,0.053-0.227,0.113c-0.031,0.02,0.01,0.053-0.057,0.057c-0.014,0-0.044-0.008-0.057,0    c-0.026,0.012-0.094,0.107-0.113,0.113c-0.049,0.014-0.121-0.021-0.169,0c-0.024,0.008,0.003,0.053-0.056,0.055    c-0.09,0.004-0.314,0.127-0.451,0.17c-0.146,0.045-0.226,0.084-0.34,0.111c-0.146,0.039-0.297,0.07-0.508,0.115    c-0.824,0.17-1.808,0.199-2.708,0c-0.229-0.051-0.486-0.133-0.734-0.228c-0.019-0.008-0.1,0.017-0.114,0    c-0.003-0.006,0.007-0.055,0-0.057c-0.102-0.037-0.202-0.024-0.28-0.058c-0.029-0.01-0.092-0.106-0.113-0.11    c-0.051-0.019-0.122,0.021-0.17,0c-0.025-0.011,0.003-0.056-0.056-0.058c-0.087-0.004-0.272-0.158-0.395-0.227    c-0.067-0.037-0.165-0.074-0.227-0.113c-0.035-0.02-0.081-0.094-0.113-0.113c-0.02-0.01-0.098,0.021-0.113,0    c-0.037-0.047-0.064-0.164-0.169-0.168c-0.084-0.004-0.143-0.159-0.225-0.225c-0.021-0.018-0.098,0.018-0.115,0    c-0.07-0.088-0.144-0.229-0.281-0.34c-0.063-0.053-0.168-0.057-0.225-0.113c-0.065-0.063-0.11-0.149-0.17-0.227    c-0.048-0.061-0.119-0.105-0.169-0.168c-0.029-0.037-0.09-0.082-0.113-0.113c-0.015-0.021,0.02-0.1,0-0.113    c-0.045-0.039-0.164-0.065-0.169-0.168c-0.003-0.049-0.085-0.125-0.112-0.172c-0.022-0.033-0.031-0.074-0.057-0.111    c-0.039-0.057-0.136-0.112-0.17-0.17c-0.034-0.057-0.028-0.114-0.055-0.168c-0.029-0.055-0.11-0.102-0.114-0.17    c0-0.008-0.041-0.143-0.056-0.17c-0.022-0.041-0.086-0.076-0.113-0.111c-0.05-0.069-0.099-0.219-0.169-0.34    c-0.092-0.153-0.187-0.291-0.282-0.451c-0.03-0.049-0.108-0.145-0.113-0.227c0-0.012,0.005-0.045,0-0.057    c-0.039-0.061-0.136-0.109-0.169-0.168c-0.049-0.084-0.055-0.18-0.113-0.281c-0.017-0.029-0.054,0.006-0.057-0.057    c-0.004-0.09-0.158-0.271-0.227-0.396c-0.036-0.07-0.067-0.146-0.112-0.225c-0.021-0.037-0.095-0.08-0.114-0.115    c-0.01-0.018,0.018-0.096,0-0.111c-0.006-0.006-0.051,0.01-0.056,0c-0.012-0.02,0.018-0.098,0-0.113    c-0.105-0.086-0.092-0.104-0.168-0.28c-0.011-0.024-0.053,0.004-0.058-0.058c-0.003-0.071-0.082-0.071-0.111-0.112    c-0.017-0.021,0.019-0.099,0-0.113c-0.034-0.026-0.167-0.155-0.169-0.225c-0.005-0.082-0.108-0.123-0.113-0.226    c-0.002-0.049-0.087-0.127-0.115-0.172c-0.043-0.07-0.104-0.225-0.167-0.338c-0.021-0.037-0.095-0.08-0.114-0.111    c-0.011-0.021,0.017-0.1,0-0.114c-0.007-0.007-0.052,0.01-0.057,0c-0.012-0.019,0.018-0.099,0-0.111    c-0.055-0.045-0.075-0.047-0.113-0.112c-0.021-0.037-0.023-0.127-0.055-0.168c-0.018-0.025-0.099-0.033-0.113-0.058    c-0.013-0.021,0.017-0.101,0-0.113c-0.007-0.006-0.053,0.007-0.058,0c-0.008-0.021,0.018-0.1,0-0.114    c-0.006-0.004-0.05,0.01-0.056,0c-0.04-0.068-0.068-0.195-0.113-0.281c-0.014-0.027-0.054,0.008-0.056-0.055    c-0.005-0.088-0.158-0.271-0.227-0.396c-0.035-0.062-0.074-0.158-0.112-0.225c-0.021-0.035-0.095-0.08-0.113-0.113    c-0.013-0.02,0.017-0.1,0-0.111c-0.008-0.008-0.053,0.006-0.058,0c-0.011-0.021,0.018-0.1,0-0.115    c-0.056-0.045-0.074-0.047-0.113-0.113c-0.021-0.036-0.025-0.125-0.056-0.168c-0.018-0.024-0.099-0.032-0.113-0.057    c-0.011-0.021,0.018-0.1,0-0.113c-0.006-0.004-0.054,0.009-0.057,0c-0.01-0.02,0.017-0.1,0-0.11    c-0.034-0.027-0.166-0.156-0.168-0.228c-0.001-0.012,0.005-0.049,0-0.057c-0.036-0.057-0.139-0.113-0.169-0.17    c-0.044-0.076-0.062-0.188-0.114-0.283c-0.028-0.053-0.108-0.102-0.113-0.168c0-0.012,0.006-0.047,0-0.057    c-0.021-0.035-0.095-0.08-0.113-0.111c-0.011-0.021,0.018-0.1,0-0.113c-0.051-0.043-0.102-0.11-0.169-0.227    c-0.021-0.037-0.024-0.127-0.056-0.17c-0.02-0.023-0.1-0.031-0.113-0.057c-0.011-0.021,0.019-0.099,0-0.111    c-0.006-0.006-0.053,0.006-0.056,0c-0.011-0.021,0.015-0.1,0-0.113c-0.069-0.055-0.164-0.102-0.169-0.227    c0,0-0.047-0.152-0.057-0.168c-0.018-0.025-0.101-0.035-0.113-0.057c-0.043-0.078-0.061-0.188-0.113-0.281    c-0.029-0.056-0.109-0.104-0.112-0.172c-0.001-0.013,0.005-0.045,0-0.058c-0.021-0.035-0.096-0.08-0.114-0.11    c-0.01-0.021,0.018-0.101,0-0.113c-0.053-0.043-0.102-0.109-0.169-0.225c-0.033-0.056-0.083-0.072-0.113-0.115    c-0.013-0.019,0.019-0.097,0-0.111c-0.007-0.006-0.051,0.006-0.056,0c-0.011-0.021,0.017-0.098,0-0.113    c-0.007-0.004-0.053,0.006-0.058,0c-0.009-0.02,0.018-0.1,0-0.111c-0.006-0.006-0.051,0.009-0.056,0    c-0.044-0.078-0.164-0.25-0.168-0.34c-0.005-0.072-0.09-0.07-0.115-0.113c-0.039-0.069-0.065-0.196-0.112-0.28    c-0.029-0.054-0.109-0.104-0.112-0.168c-0.005-0.097-0.112-0.187-0.171-0.283c-0.038-0.065-0.076-0.164-0.112-0.228    c-0.031-0.055-0.083-0.069-0.112-0.11c-0.016-0.021,0.018-0.101,0-0.115c-0.008-0.006-0.053,0.011-0.058,0    c-0.01-0.018,0.018-0.098,0-0.11c-0.005-0.006-0.052,0.008-0.056,0c-0.01-0.021,0.017-0.101,0-0.113    c-0.067-0.057-0.162-0.102-0.169-0.225c-0.003-0.074-0.082-0.072-0.113-0.113c-0.015-0.021,0.019-0.098,0-0.115    c-0.04-0.031-0.104-0.16-0.17-0.281c-0.015-0.027-0.053,0.008-0.055-0.055c-0.001-0.01-0.042-0.143-0.057-0.17    c-0.024-0.041-0.087-0.076-0.113-0.113c-0.051-0.068-0.099-0.219-0.169-0.338c-0.087-0.15-0.193-0.299-0.282-0.453    c-0.028-0.049-0.108-0.143-0.113-0.225c-0.004-0.072-0.082-0.072-0.112-0.113c-0.017-0.02,0.018-0.098,0-0.111    c-0.047-0.039-0.092-0.145-0.169-0.283c-0.018-0.028-0.054,0.007-0.057-0.057c-0.001-0.008-0.041-0.143-0.056-0.168    c-0.024-0.043-0.087-0.078-0.113-0.113c-0.049-0.065-0.104-0.229-0.17-0.34c-0.02-0.035-0.094-0.08-0.112-0.113    c-0.011-0.02,0.018-0.098,0-0.11c-0.008-0.006-0.051,0.008-0.056,0c-0.013-0.021,0.017-0.101,0-0.113    c-0.056-0.045-0.075-0.047-0.114-0.112c-2.114-3.668-4.285-7.447-6.433-11.174c-0.032-0.056-0.083-0.068-0.113-0.113    c-0.014-0.021,0.018-0.096,0-0.111c-0.007-0.006-0.051,0.006-0.056,0c-0.012-0.021,0.017-0.1,0-0.113    c-0.008-0.006-0.054,0.006-0.057,0c-0.01-0.021,0.016-0.1,0-0.113c-0.068-0.055-0.163-0.102-0.17-0.227    c-0.001-0.012,0.007-0.045,0-0.057c-0.038-0.062-0.136-0.109-0.169-0.168c-0.048-0.084-0.055-0.178-0.114-0.281    c-0.016-0.031-0.053,0.006-0.056-0.059c0-0.008-0.042-0.144-0.056-0.168c-0.023-0.041-0.086-0.078-0.113-0.113    c-0.049-0.064-0.105-0.227-0.169-0.338c-0.087-0.15-0.193-0.301-0.282-0.453c-0.029-0.047-0.108-0.143-0.114-0.225    c-0.002-0.072-0.082-0.07-0.112-0.113c-0.015-0.021,0.018-0.098,0-0.113c-0.039-0.031-0.102-0.16-0.169-0.281    c-0.016-0.029-0.053,0.008-0.057-0.057c-0.004-0.088-0.157-0.271-0.226-0.395c-0.043-0.08-0.072-0.158-0.114-0.228    c-0.02-0.035-0.093-0.08-0.111-0.113c-0.012-0.02,0.017-0.098,0-0.11c-0.007-0.008-0.053,0.008-0.057,0    c-0.011-0.021,0.018-0.101,0-0.113c-0.106-0.088-0.092-0.107-0.169-0.281c-0.01-0.025-0.052,0.004-0.056-0.059    c-0.004-0.07-0.082-0.07-0.113-0.111c-0.015-0.021,0.019-0.098,0-0.113c-0.034-0.027-0.166-0.154-0.168-0.227    c-0.006-0.08-0.108-0.121-0.115-0.225c-0.001-0.049-0.084-0.125-0.112-0.17c-0.044-0.072-0.104-0.226-0.169-0.338    c-0.021-0.037-0.095-0.08-0.113-0.113c-0.011-0.021,0.018-0.101,0-0.111c-0.007-0.008-0.052,0.008-0.057,0    c-0.012-0.021,0.018-0.1,0-0.113c-0.055-0.047-0.074-0.049-0.113-0.115c-0.021-0.035-0.025-0.125-0.056-0.166    c-0.019-0.024-0.1-0.035-0.114-0.059c-0.011-0.02,0.019-0.098,0-0.111c-0.006-0.006-0.052,0.006-0.056,0    c-0.011-0.021,0.017-0.101,0-0.113c-0.007-0.006-0.052,0.009-0.057,0c-0.04-0.071-0.068-0.196-0.112-0.282    c-0.016-0.028-0.054,0.008-0.057-0.056c-0.005-0.088-0.158-0.271-0.225-0.396c-0.036-0.062-0.075-0.157-0.113-0.226    c-0.021-0.035-0.095-0.079-0.115-0.112c-0.01-0.021,0.018-0.101,0-0.113c-0.047-0.04-0.102-0.11-0.167-0.227    c-0.022-0.038-0.026-0.128-0.057-0.168c-0.018-0.025-0.099-0.033-0.113-0.056c-0.013-0.022,0.018-0.101,0-0.115    c-0.007-0.004-0.055,0.008-0.057,0c-0.009-0.021,0.017-0.1,0-0.111c-0.007-0.007-0.052,0.008-0.056,0    c-0.041-0.072-0.069-0.199-0.114-0.283c-0.015-0.029-0.053,0.008-0.056-0.056c-0.005-0.091-0.108-0.183-0.169-0.283    c-0.04-0.06-0.054-0.132-0.113-0.226c-0.021-0.032-0.054,0.01-0.056-0.057c-0.001-0.014,0.006-0.046,0-0.056    c-0.021-0.039-0.095-0.082-0.113-0.114c-0.013-0.021,0.017-0.098,0-0.113c-0.049-0.041-0.103-0.109-0.169-0.226    c-0.022-0.038-0.025-0.128-0.057-0.169c-0.018-0.025-0.099-0.033-0.113-0.057c-0.011-0.021,0.018-0.1,0-0.113    c-0.006-0.005-0.054,0.008-0.057,0c-0.01-0.02,0.017-0.098,0-0.113c-0.007-0.004-0.052,0.01-0.056,0    c-0.048-0.078-0.165-0.25-0.17-0.338c-0.003-0.074-0.087-0.068-0.111-0.113c-0.046-0.08-0.065-0.194-0.113-0.281    c-0.029-0.055-0.109-0.104-0.114-0.168c0-0.015,0.006-0.047,0-0.057c-0.021-0.037-0.095-0.082-0.113-0.115    c-0.011-0.02,0.019-0.097,0-0.112c-0.056-0.046-0.102-0.109-0.169-0.226c-0.021-0.037-0.024-0.127-0.056-0.168    c-0.02-0.024-0.1-0.035-0.113-0.058c-0.011-0.021,0.019-0.099,0-0.11c-0.006-0.007-0.053,0.004-0.056,0    c-0.011-0.021,0.017-0.101,0-0.115c-0.008-0.006-0.054,0.009-0.057,0c-0.046-0.08-0.064-0.197-0.112-0.28    c-0.034-0.06-0.14-0.117-0.17-0.171c-0.046-0.081-0.065-0.195-0.113-0.282c-0.029-0.053-0.109-0.103-0.112-0.168    c-0.005-0.095-0.112-0.184-0.169-0.282c-0.038-0.064-0.076-0.159-0.113-0.226c-0.032-0.056-0.083-0.07-0.114-0.114    c-0.013-0.02,0.019-0.098,0-0.112c-0.007-0.007-0.052,0.008-0.056,0c-0.012-0.02,0.017-0.099,0-0.112    c-0.007-0.007-0.053,0.005-0.057,0c-0.01-0.021,0.018-0.1,0-0.115c-0.067-0.056-0.162-0.099-0.169-0.224    c-0.003-0.074-0.082-0.072-0.113-0.113c-0.014-0.022,0.02-0.099,0-0.114c-0.047-0.039-0.092-0.142-0.169-0.281    c-0.018-0.03-0.054,0.008-0.056-0.056c-0.001-0.011-0.042-0.143-0.057-0.171c-0.023-0.041-0.087-0.077-0.114-0.111    c-0.049-0.067-0.104-0.229-0.168-0.339c-0.089-0.149-0.195-0.3-0.282-0.452c-0.046-0.079-0.065-0.197-0.113-0.282    c-0.034-0.059-0.138-0.115-0.169-0.168c-0.044-0.078-0.061-0.189-0.113-0.282c-0.017-0.029-0.054,0.007-0.056-0.057    c-0.001-0.007-0.042-0.143-0.057-0.169c-0.024-0.041-0.087-0.075-0.113-0.113c-0.051-0.069-0.098-0.22-0.169-0.338    c-0.021-0.038-0.095-0.082-0.112-0.113c-0.012-0.022,0.017-0.099,0-0.114c-0.008-0.004-0.052,0.007-0.057,0    c-0.011-0.021,0.018-0.098,0-0.112c-0.107-0.089-0.092-0.106-0.169-0.283c-0.011-0.024-0.052,0.005-0.056-0.057    c-0.004-0.071-0.082-0.071-0.113-0.113c-0.017-0.018,0.019-0.099,0-0.111c-0.04-0.035-0.103-0.163-0.169-0.282    c-0.017-0.029-0.054,0.007-0.057-0.057c-0.003-0.087-0.158-0.272-0.225-0.395c-0.047-0.083-0.069-0.146-0.113-0.227    c-0.021-0.036-0.095-0.081-0.113-0.111c-0.011-0.021,0.018-0.099,0-0.113c-0.008-0.007-0.051,0.008-0.056,0    c-0.013-0.021,0.017-0.099,0-0.114c-0.106-0.086-0.093-0.106-0.17-0.281c-0.011-0.026-0.054,0.003-0.056-0.056    c-0.003-0.075-0.082-0.075-0.114-0.114c-0.014-0.021,0.02-0.099,0-0.113c-0.007-0.007-0.05,0.008-0.056,0    c-0.045-0.079-0.062-0.187-0.113-0.282c-0.015-0.029-0.053,0.007-0.057-0.057c-0.004-0.087-0.159-0.271-0.226-0.394    c-0.042-0.083-0.072-0.159-0.111-0.228c-0.021-0.034-0.095-0.078-0.113-0.113c-0.011-0.018,0.017-0.099,0-0.111    c-0.057-0.047-0.103-0.11-0.169-0.227c-0.023-0.037-0.026-0.128-0.057-0.168c-0.018-0.024-0.099-0.035-0.112-0.056    c-0.014-0.022,0.017-0.1,0-0.114c-0.007-0.004-0.054,0.007-0.057,0c-0.011-0.021,0.016-0.102,0-0.113    c-0.008-0.007-0.052,0.007-0.057,0c-0.041-0.072-0.067-0.196-0.113-0.283c-0.015-0.03-0.053,0.008-0.056-0.056    c-0.004-0.086-0.157-0.27-0.226-0.395c-0.043-0.08-0.074-0.157-0.113-0.227c-0.021-0.034-0.095-0.08-0.112-0.111    c-0.012-0.021,0.016-0.098,0-0.113c-0.051-0.039-0.104-0.11-0.17-0.227c-0.021-0.038-0.025-0.128-0.056-0.17    c-0.018-0.023-0.1-0.032-0.113-0.054c-0.012-0.021,0.018-0.1,0-0.115c-0.007-0.005-0.054,0.008-0.056,0    c-0.011-0.02,0.015-0.098,0-0.112c-0.035-0.028-0.167-0.156-0.17-0.226c0,0-0.044-0.154-0.056-0.169    c-0.018-0.022-0.1-0.034-0.112-0.057c-0.049-0.082-0.056-0.177-0.114-0.282c-0.029-0.055-0.11-0.104-0.112-0.169    c-0.001-0.013,0.005-0.046,0-0.056c-0.021-0.038-0.096-0.082-0.114-0.115c-0.01-0.02,0.018-0.096,0-0.113    c-0.051-0.043-0.107-0.12-0.169-0.224c-0.021-0.039-0.024-0.13-0.056-0.169c-0.018-0.025-0.1-0.035-0.113-0.057    c-0.013-0.02,0.018-0.099,0-0.111c-0.007-0.006-0.054,0.004-0.056,0c-0.01-0.022,0.017-0.1,0-0.114    c-0.068-0.056-0.164-0.103-0.17-0.226c-0.001-0.015,0.006-0.046,0-0.056c-0.032-0.06-0.138-0.117-0.169-0.17    c-0.045-0.081-0.065-0.195-0.113-0.282c-0.03-0.052-0.109-0.103-0.113-0.169c-0.005-0.095-0.111-0.184-0.168-0.282    c-0.046-0.078-0.074-0.159-0.113-0.226c-0.031-0.056-0.084-0.071-0.112-0.115c-0.014-0.018,0.017-0.096,0-0.111    c-0.008-0.006-0.053,0.007-0.057,0c-0.012-0.02,0.017-0.099,0-0.111c-0.008-0.007-0.054,0.004-0.057,0    c-0.01-0.021,0.016-0.1,0-0.115c-0.007-0.005-0.051,0.008-0.056,0c-0.046-0.079-0.064-0.197-0.114-0.282    c-0.033-0.057-0.137-0.114-0.168-0.169c-0.047-0.079-0.066-0.196-0.113-0.282c-0.016-0.03-0.053,0.008-0.056-0.058    c-0.001-0.006-0.042-0.141-0.058-0.168c-0.023-0.041-0.085-0.077-0.112-0.111c-0.05-0.067-0.106-0.228-0.17-0.341    c-0.033-0.054-0.083-0.069-0.113-0.111c-0.014-0.021,0.02-0.099,0-0.114c-0.006-0.006-0.051,0.008-0.056,0    c-0.012-0.021,0.017-0.098,0-0.113c-0.006-0.005-0.054,0.008-0.056,0c-0.011-0.021,0.016-0.099,0-0.113    c-0.068-0.056-0.164-0.1-0.17-0.225c-0.004-0.074-0.082-0.072-0.112-0.113c-0.016-0.021,0.017-0.099,0-0.113    c-0.04-0.033-0.103-0.161-0.169-0.282c-0.017-0.029-0.053,0.007-0.058-0.056c0-0.008-0.041-0.144-0.056-0.171    c-0.023-0.041-0.087-0.075-0.113-0.111c-0.05-0.071-0.098-0.22-0.169-0.339c-0.09-0.152-0.198-0.312-0.282-0.452    c-0.029-0.05-0.108-0.145-0.113-0.227c-0.005-0.07-0.082-0.07-0.113-0.111c-0.015-0.021,0.02-0.099,0-0.113    c-0.043-0.036-0.097-0.15-0.17-0.282c-0.016-0.029-0.053,0.008-0.056-0.057c0.004-0.093-0.148-0.278-0.215-0.399    c-0.036-0.065-0.074-0.161-0.113-0.227c-0.021-0.037-0.095-0.08-0.113-0.113c-0.011-0.02,0.018-0.099,0-0.115    c-0.008-0.004-0.052,0.011-0.056,0c-0.013-0.017,0.017-0.096,0-0.111c-0.108-0.087-0.093-0.105-0.17-0.282    c-0.011-0.025-0.053,0.003-0.057-0.058c-0.002-0.07-0.081-0.07-0.112-0.113c-0.015-0.02,0.018-0.096,0-0.111    C9.13,23.931,9.067,23.803,9,23.682C8.983,23.653,8.946,23.689,8.942,23.625z"/>
	</g>
</g>
</svg>