<svg xmlns="http://www.w3.org/2000/svg" xmlns:xlink="http://www.w3.org/1999/xlink" version="1.1" id="Layer_1" x="0px" y="0px" width="60px" height="60px" viewBox="0 0 60 60" enable-background="new 0 0 60 60" xml:space="preserve">
<rect x="-14" y="-13" display="none" fill="#000000" width="198" height="87"/>
<g>
	<path d="M94.271,9v0.902c1.259,0,2.233,0.187,2.926,0.561c0.444,0.244,0.811,0.684,1.104,1.317   c0.293,0.635,0.437,1.691,0.437,3.172v13.492c0,3.513-0.292,5.978-0.885,7.394c-0.593,1.415-1.481,2.524-2.67,3.329   c-1.188,0.804-2.629,1.208-4.318,1.208c-1.474,0-2.692-0.317-3.662-0.952c-0.967-0.633-1.659-1.43-2.081-2.391   c-0.423-0.959-0.634-2.92-0.634-5.879V14.952c0-1.887,0.097-3.066,0.289-3.537c0.188-0.473,0.511-0.843,0.967-1.111   c0.451-0.268,1.285-0.401,2.496-0.401h0.807V9H72.93v0.902c1.318-0.017,2.226,0.113,2.715,0.39c0.492,0.276,0.837,0.647,1.036,1.11   c0.2,0.464,0.301,1.646,0.301,3.55v16.201c0,2.748,0.414,4.937,1.244,6.563c0.829,1.626,2.248,2.961,4.259,4.001   c1.474,0.765,3.559,1.146,6.262,1.146c3.24,0,5.796-0.724,7.666-2.17c1.874-1.448,3.052-3.035,3.537-4.759   c0.48-1.724,0.726-4.529,0.726-8.418V14.952c0-1.35,0.1-2.284,0.296-2.806c0.263-0.748,0.686-1.31,1.267-1.684   c0.585-0.374,1.314-0.561,2.188-0.561h0.645V9H94.271z"/>
	<rect x="73.37" y="47.341" width="30.101" height="1.659"/>
</g>
<g>
	<path d="M37.038,0v1.354c1.889,0,3.35,0.28,4.389,0.841c0.667,0.365,1.216,1.025,1.655,1.976s0.655,2.537,0.655,4.758v20.238   c0,5.269-0.438,8.966-1.328,11.091c-0.889,2.122-2.222,3.785-4.005,4.993c-1.783,1.206-3.944,1.812-6.477,1.812   c-2.211,0-4.039-0.475-5.494-1.428c-1.45-0.95-2.489-2.145-3.122-3.586c-0.633-1.438-0.95-4.38-0.95-8.818V8.929   c0-2.83,0.145-4.6,0.433-5.306c0.283-0.708,0.767-1.264,1.45-1.667c0.678-0.401,1.928-0.603,3.744-0.603H29.2V0H5.025v1.354   c1.978-0.025,3.338,0.17,4.072,0.584c0.739,0.415,1.255,0.971,1.555,1.665c0.3,0.696,0.45,2.471,0.45,5.326V33.23   c0,4.122,0.622,7.405,1.866,9.844c1.245,2.438,3.372,4.44,6.388,6.002c2.211,1.146,5.338,1.719,9.394,1.719   c4.86,0,8.693-1.086,11.499-3.255c2.811-2.172,4.577-4.552,5.305-7.138c0.722-2.585,1.088-6.793,1.088-12.626V8.929   c0-2.025,0.15-3.427,0.444-4.209c0.395-1.122,1.028-1.964,1.9-2.525c0.878-0.561,1.972-0.841,3.283-0.841h0.966V0H37.038z"/>
	<rect x="5.687" y="57.511" width="45.15" height="2.489"/>
</g>
<g>
	<path d="M135.954,16v0.677c0.944,0,1.675,0.14,2.194,0.421c0.333,0.183,0.608,0.512,0.828,0.988s0.328,1.269,0.328,2.379v10.119   c0,2.634-0.219,4.483-0.664,5.545c-0.444,1.061-1.111,1.893-2.003,2.497c-0.891,0.603-1.972,0.905-3.238,0.905   c-1.105,0-2.019-0.237-2.747-0.713c-0.725-0.475-1.244-1.072-1.561-1.793c-0.317-0.719-0.475-2.19-0.475-4.409V20.464   c0-1.415,0.072-2.3,0.217-2.653c0.142-0.354,0.383-0.632,0.725-0.833c0.339-0.201,0.964-0.301,1.872-0.301h0.605V16h-12.087v0.677   c0.989-0.013,1.669,0.085,2.036,0.292c0.37,0.208,0.628,0.485,0.778,0.833c0.15,0.348,0.225,1.235,0.225,2.663v12.151   c0,2.061,0.311,3.702,0.933,4.921c0.622,1.22,1.686,2.221,3.194,3.001c1.105,0.574,2.669,0.861,4.696,0.861   c2.431,0,4.347-0.543,5.75-1.628c1.405-1.086,2.289-2.276,2.652-3.569c0.361-1.292,0.544-3.396,0.544-6.313v-9.423   c0-1.012,0.075-1.713,0.222-2.104c0.197-0.561,0.514-0.982,0.95-1.262c0.438-0.281,0.986-0.421,1.641-0.421h0.483V16H135.954z"/>
	<rect x="120.278" y="44.754" width="22.575" height="1.246"/>
</g>
<g>
	<path d="M165.636,20v0.451c0.629,0,1.117,0.093,1.463,0.28c0.222,0.122,0.405,0.342,0.552,0.659   c0.146,0.317,0.218,0.846,0.218,1.586v6.746c0,1.756-0.146,2.989-0.442,3.697c-0.296,0.708-0.741,1.262-1.335,1.665   c-0.594,0.402-1.314,0.604-2.159,0.604c-0.737,0-1.346-0.159-1.831-0.476c-0.483-0.316-0.83-0.715-1.041-1.195   c-0.211-0.479-0.317-1.46-0.317-2.939v-8.101c0-0.943,0.048-1.533,0.145-1.769c0.094-0.236,0.255-0.421,0.483-0.556   c0.226-0.134,0.643-0.201,1.248-0.201h0.403V20h-8.058v0.451c0.659-0.008,1.113,0.057,1.357,0.195   c0.246,0.138,0.418,0.324,0.518,0.555c0.1,0.232,0.15,0.823,0.15,1.775v8.101c0,1.374,0.207,2.468,0.622,3.281   c0.415,0.813,1.124,1.48,2.129,2c0.737,0.382,1.779,0.573,3.131,0.573c1.62,0,2.898-0.362,3.833-1.085   c0.937-0.724,1.526-1.518,1.769-2.379c0.24-0.862,0.363-2.265,0.363-4.209v-6.282c0-0.675,0.05-1.142,0.148-1.403   c0.131-0.374,0.343-0.655,0.633-0.842c0.292-0.187,0.657-0.28,1.094-0.28h0.322V20H165.636z"/>
	<rect x="155.185" y="39.17" width="15.05" height="0.83"/>
</g>
</svg>